<mxfile host="app.diagrams.net" modified="2021-12-19T07:56:28.110Z" agent="5.0 (Windows NT 10.0; Win64; x64) AppleWebKit/537.36 (KHTML, like Gecko) Chrome/96.0.4664.93 Safari/537.36" etag="XC13i2Pf44Vyod5kTZgD" version="15.9.6" type="github">
  <diagram id="O_8Gef8bSsG3YyjCZVvP" name="Page-1">
    <mxGraphModel dx="2576" dy="1971" grid="1" gridSize="10" guides="1" tooltips="1" connect="1" arrows="1" fold="1" page="1" pageScale="1" pageWidth="827" pageHeight="1169" math="0" shadow="0">
      <root>
        <mxCell id="0" />
        <mxCell id="1" parent="0" />
        <mxCell id="GTG6F6J4O82Cw8e9boyh-1" value="" style="edgeStyle=orthogonalEdgeStyle;rounded=0;orthogonalLoop=1;jettySize=auto;html=1;" edge="1" parent="1" source="GTG6F6J4O82Cw8e9boyh-3" target="GTG6F6J4O82Cw8e9boyh-5">
          <mxGeometry relative="1" as="geometry" />
        </mxCell>
        <mxCell id="GTG6F6J4O82Cw8e9boyh-2" value="" style="edgeStyle=orthogonalEdgeStyle;rounded=0;orthogonalLoop=1;jettySize=auto;html=1;" edge="1" parent="1" source="GTG6F6J4O82Cw8e9boyh-3" target="GTG6F6J4O82Cw8e9boyh-9">
          <mxGeometry relative="1" as="geometry" />
        </mxCell>
        <mxCell id="GTG6F6J4O82Cw8e9boyh-3" value="规划报建" style="rounded=1;whiteSpace=wrap;html=1;" vertex="1" parent="1">
          <mxGeometry x="-440" y="-760" width="120" height="60" as="geometry" />
        </mxCell>
        <mxCell id="GTG6F6J4O82Cw8e9boyh-4" value="" style="edgeStyle=orthogonalEdgeStyle;rounded=0;orthogonalLoop=1;jettySize=auto;html=1;" edge="1" parent="1" source="GTG6F6J4O82Cw8e9boyh-5" target="GTG6F6J4O82Cw8e9boyh-6">
          <mxGeometry relative="1" as="geometry" />
        </mxCell>
        <mxCell id="GTG6F6J4O82Cw8e9boyh-5" value="修建性详细规划" style="whiteSpace=wrap;html=1;rounded=1;" vertex="1" parent="1">
          <mxGeometry x="-240" y="-760" width="120" height="60" as="geometry" />
        </mxCell>
        <mxCell id="GTG6F6J4O82Cw8e9boyh-6" value="建设工程规划许可证" style="whiteSpace=wrap;html=1;rounded=1;fillColor=#FF9999;" vertex="1" parent="1">
          <mxGeometry x="-80" y="-760" width="120" height="60" as="geometry" />
        </mxCell>
        <mxCell id="GTG6F6J4O82Cw8e9boyh-7" value="" style="edgeStyle=orthogonalEdgeStyle;rounded=0;orthogonalLoop=1;jettySize=auto;html=1;" edge="1" parent="1" source="GTG6F6J4O82Cw8e9boyh-9" target="GTG6F6J4O82Cw8e9boyh-12">
          <mxGeometry relative="1" as="geometry" />
        </mxCell>
        <mxCell id="GTG6F6J4O82Cw8e9boyh-8" value="" style="edgeStyle=orthogonalEdgeStyle;rounded=0;orthogonalLoop=1;jettySize=auto;html=1;" edge="1" parent="1" source="GTG6F6J4O82Cw8e9boyh-9" target="GTG6F6J4O82Cw8e9boyh-14">
          <mxGeometry relative="1" as="geometry" />
        </mxCell>
        <mxCell id="GTG6F6J4O82Cw8e9boyh-9" value="专业报建" style="whiteSpace=wrap;html=1;rounded=1;" vertex="1" parent="1">
          <mxGeometry x="-440" y="-620" width="120" height="60" as="geometry" />
        </mxCell>
        <mxCell id="GTG6F6J4O82Cw8e9boyh-10" value="" style="edgeStyle=orthogonalEdgeStyle;rounded=0;orthogonalLoop=1;jettySize=auto;html=1;" edge="1" parent="1" source="GTG6F6J4O82Cw8e9boyh-12" target="GTG6F6J4O82Cw8e9boyh-35">
          <mxGeometry relative="1" as="geometry" />
        </mxCell>
        <mxCell id="GTG6F6J4O82Cw8e9boyh-11" value="" style="edgeStyle=orthogonalEdgeStyle;rounded=0;orthogonalLoop=1;jettySize=auto;html=1;" edge="1" parent="1" source="GTG6F6J4O82Cw8e9boyh-12" target="GTG6F6J4O82Cw8e9boyh-61">
          <mxGeometry relative="1" as="geometry" />
        </mxCell>
        <mxCell id="GTG6F6J4O82Cw8e9boyh-12" value="国土报建" style="whiteSpace=wrap;html=1;rounded=1;" vertex="1" parent="1">
          <mxGeometry x="-440" y="-190" width="120" height="60" as="geometry" />
        </mxCell>
        <mxCell id="GTG6F6J4O82Cw8e9boyh-13" value="" style="edgeStyle=orthogonalEdgeStyle;rounded=0;orthogonalLoop=1;jettySize=auto;html=1;" edge="1" parent="1" source="GTG6F6J4O82Cw8e9boyh-14" target="GTG6F6J4O82Cw8e9boyh-16">
          <mxGeometry relative="1" as="geometry" />
        </mxCell>
        <mxCell id="GTG6F6J4O82Cw8e9boyh-14" value="立项及招标核准" style="whiteSpace=wrap;html=1;rounded=1;" vertex="1" parent="1">
          <mxGeometry x="-240" y="-620" width="120" height="60" as="geometry" />
        </mxCell>
        <mxCell id="GTG6F6J4O82Cw8e9boyh-15" value="" style="edgeStyle=orthogonalEdgeStyle;rounded=0;orthogonalLoop=1;jettySize=auto;html=1;" edge="1" parent="1" source="GTG6F6J4O82Cw8e9boyh-16" target="GTG6F6J4O82Cw8e9boyh-18">
          <mxGeometry relative="1" as="geometry" />
        </mxCell>
        <mxCell id="GTG6F6J4O82Cw8e9boyh-16" value="公开出让地块用地阶段并联审批" style="whiteSpace=wrap;html=1;rounded=1;" vertex="1" parent="1">
          <mxGeometry x="-40" y="-620" width="120" height="60" as="geometry" />
        </mxCell>
        <mxCell id="GTG6F6J4O82Cw8e9boyh-17" value="" style="edgeStyle=orthogonalEdgeStyle;rounded=0;orthogonalLoop=1;jettySize=auto;html=1;" edge="1" parent="1" source="GTG6F6J4O82Cw8e9boyh-18" target="GTG6F6J4O82Cw8e9boyh-20">
          <mxGeometry relative="1" as="geometry" />
        </mxCell>
        <mxCell id="GTG6F6J4O82Cw8e9boyh-18" value="建设项目卫生学预评价" style="whiteSpace=wrap;html=1;rounded=1;" vertex="1" parent="1">
          <mxGeometry x="160" y="-620" width="120" height="60" as="geometry" />
        </mxCell>
        <mxCell id="GTG6F6J4O82Cw8e9boyh-19" value="" style="edgeStyle=orthogonalEdgeStyle;rounded=0;orthogonalLoop=1;jettySize=auto;html=1;" edge="1" parent="1" source="GTG6F6J4O82Cw8e9boyh-20" target="GTG6F6J4O82Cw8e9boyh-22">
          <mxGeometry relative="1" as="geometry" />
        </mxCell>
        <mxCell id="GTG6F6J4O82Cw8e9boyh-20" value="水土保持" style="whiteSpace=wrap;html=1;rounded=1;" vertex="1" parent="1">
          <mxGeometry x="160" y="-525" width="120" height="60" as="geometry" />
        </mxCell>
        <mxCell id="GTG6F6J4O82Cw8e9boyh-21" value="" style="edgeStyle=orthogonalEdgeStyle;rounded=0;orthogonalLoop=1;jettySize=auto;html=1;" edge="1" parent="1" source="GTG6F6J4O82Cw8e9boyh-22" target="GTG6F6J4O82Cw8e9boyh-24">
          <mxGeometry relative="1" as="geometry" />
        </mxCell>
        <mxCell id="GTG6F6J4O82Cw8e9boyh-22" value="建设项目环境影响审批" style="whiteSpace=wrap;html=1;rounded=1;" vertex="1" parent="1">
          <mxGeometry x="-40" y="-525" width="120" height="60" as="geometry" />
        </mxCell>
        <mxCell id="GTG6F6J4O82Cw8e9boyh-23" value="" style="edgeStyle=orthogonalEdgeStyle;rounded=0;orthogonalLoop=1;jettySize=auto;html=1;" edge="1" parent="1" source="GTG6F6J4O82Cw8e9boyh-24" target="GTG6F6J4O82Cw8e9boyh-26">
          <mxGeometry relative="1" as="geometry" />
        </mxCell>
        <mxCell id="GTG6F6J4O82Cw8e9boyh-24" value="超限高层建筑工程抗震设防专项审批" style="whiteSpace=wrap;html=1;rounded=1;" vertex="1" parent="1">
          <mxGeometry x="-240" y="-525" width="120" height="60" as="geometry" />
        </mxCell>
        <mxCell id="GTG6F6J4O82Cw8e9boyh-25" value="" style="edgeStyle=orthogonalEdgeStyle;rounded=0;orthogonalLoop=1;jettySize=auto;html=1;" edge="1" parent="1" source="GTG6F6J4O82Cw8e9boyh-26" target="GTG6F6J4O82Cw8e9boyh-28">
          <mxGeometry relative="1" as="geometry" />
        </mxCell>
        <mxCell id="GTG6F6J4O82Cw8e9boyh-26" value="初步设计审查" style="whiteSpace=wrap;html=1;rounded=1;" vertex="1" parent="1">
          <mxGeometry x="-240" y="-415" width="120" height="60" as="geometry" />
        </mxCell>
        <mxCell id="GTG6F6J4O82Cw8e9boyh-27" value="" style="edgeStyle=orthogonalEdgeStyle;rounded=0;orthogonalLoop=1;jettySize=auto;html=1;" edge="1" parent="1" source="GTG6F6J4O82Cw8e9boyh-28" target="GTG6F6J4O82Cw8e9boyh-30">
          <mxGeometry relative="1" as="geometry" />
        </mxCell>
        <mxCell id="GTG6F6J4O82Cw8e9boyh-28" value="地铁专业意见审批" style="whiteSpace=wrap;html=1;rounded=1;" vertex="1" parent="1">
          <mxGeometry x="-40" y="-415" width="120" height="60" as="geometry" />
        </mxCell>
        <mxCell id="GTG6F6J4O82Cw8e9boyh-29" value="" style="edgeStyle=orthogonalEdgeStyle;rounded=0;orthogonalLoop=1;jettySize=auto;html=1;" edge="1" parent="1" source="GTG6F6J4O82Cw8e9boyh-30" target="GTG6F6J4O82Cw8e9boyh-32">
          <mxGeometry relative="1" as="geometry" />
        </mxCell>
        <mxCell id="GTG6F6J4O82Cw8e9boyh-30" value="排水设施设计条件咨询审批" style="whiteSpace=wrap;html=1;rounded=1;" vertex="1" parent="1">
          <mxGeometry x="160" y="-415" width="120" height="60" as="geometry" />
        </mxCell>
        <mxCell id="GTG6F6J4O82Cw8e9boyh-31" value="" style="edgeStyle=orthogonalEdgeStyle;rounded=0;orthogonalLoop=1;jettySize=auto;html=1;" edge="1" parent="1" source="GTG6F6J4O82Cw8e9boyh-32" target="GTG6F6J4O82Cw8e9boyh-33">
          <mxGeometry relative="1" as="geometry" />
        </mxCell>
        <mxCell id="GTG6F6J4O82Cw8e9boyh-32" value="民防建设意见审批" style="whiteSpace=wrap;html=1;rounded=1;" vertex="1" parent="1">
          <mxGeometry x="160" y="-305" width="120" height="60" as="geometry" />
        </mxCell>
        <mxCell id="GTG6F6J4O82Cw8e9boyh-33" value="消防设计审核、备案" style="whiteSpace=wrap;html=1;rounded=1;" vertex="1" parent="1">
          <mxGeometry x="-40" y="-305" width="120" height="60" as="geometry" />
        </mxCell>
        <mxCell id="GTG6F6J4O82Cw8e9boyh-34" value="" style="edgeStyle=orthogonalEdgeStyle;rounded=0;orthogonalLoop=1;jettySize=auto;html=1;" edge="1" parent="1" source="GTG6F6J4O82Cw8e9boyh-35" target="GTG6F6J4O82Cw8e9boyh-37">
          <mxGeometry relative="1" as="geometry" />
        </mxCell>
        <mxCell id="GTG6F6J4O82Cw8e9boyh-35" value="不动产权证" style="whiteSpace=wrap;html=1;rounded=1;" vertex="1" parent="1">
          <mxGeometry x="-240" y="-190" width="120" height="60" as="geometry" />
        </mxCell>
        <mxCell id="GTG6F6J4O82Cw8e9boyh-36" value="" style="edgeStyle=orthogonalEdgeStyle;rounded=0;orthogonalLoop=1;jettySize=auto;html=1;" edge="1" parent="1" source="GTG6F6J4O82Cw8e9boyh-37" target="GTG6F6J4O82Cw8e9boyh-39">
          <mxGeometry relative="1" as="geometry" />
        </mxCell>
        <mxCell id="GTG6F6J4O82Cw8e9boyh-37" value="直管房拆迁补偿意见审批" style="whiteSpace=wrap;html=1;rounded=1;" vertex="1" parent="1">
          <mxGeometry x="-40" y="-190" width="120" height="60" as="geometry" />
        </mxCell>
        <mxCell id="GTG6F6J4O82Cw8e9boyh-38" value="" style="edgeStyle=orthogonalEdgeStyle;rounded=0;orthogonalLoop=1;jettySize=auto;html=1;" edge="1" parent="1" source="GTG6F6J4O82Cw8e9boyh-39" target="GTG6F6J4O82Cw8e9boyh-41">
          <mxGeometry relative="1" as="geometry" />
        </mxCell>
        <mxCell id="GTG6F6J4O82Cw8e9boyh-39" value="办理项目概况——网上填报" style="whiteSpace=wrap;html=1;rounded=1;" vertex="1" parent="1">
          <mxGeometry x="160" y="-190" width="120" height="60" as="geometry" />
        </mxCell>
        <mxCell id="GTG6F6J4O82Cw8e9boyh-40" value="" style="edgeStyle=orthogonalEdgeStyle;rounded=0;orthogonalLoop=1;jettySize=auto;html=1;" edge="1" parent="1" source="GTG6F6J4O82Cw8e9boyh-41" target="GTG6F6J4O82Cw8e9boyh-43">
          <mxGeometry relative="1" as="geometry" />
        </mxCell>
        <mxCell id="GTG6F6J4O82Cw8e9boyh-41" value="预交存首期物业专项维修资金" style="whiteSpace=wrap;html=1;rounded=1;" vertex="1" parent="1">
          <mxGeometry x="160" y="-70" width="120" height="60" as="geometry" />
        </mxCell>
        <mxCell id="GTG6F6J4O82Cw8e9boyh-42" value="" style="edgeStyle=orthogonalEdgeStyle;rounded=0;orthogonalLoop=1;jettySize=auto;html=1;" edge="1" parent="1" source="GTG6F6J4O82Cw8e9boyh-43" target="GTG6F6J4O82Cw8e9boyh-45">
          <mxGeometry relative="1" as="geometry" />
        </mxCell>
        <mxCell id="GTG6F6J4O82Cw8e9boyh-43" value="预售方案备案" style="whiteSpace=wrap;html=1;rounded=1;" vertex="1" parent="1">
          <mxGeometry x="-40" y="-70" width="120" height="60" as="geometry" />
        </mxCell>
        <mxCell id="GTG6F6J4O82Cw8e9boyh-44" value="" style="edgeStyle=orthogonalEdgeStyle;rounded=0;orthogonalLoop=1;jettySize=auto;html=1;" edge="1" parent="1" source="GTG6F6J4O82Cw8e9boyh-45" target="GTG6F6J4O82Cw8e9boyh-47">
          <mxGeometry relative="1" as="geometry" />
        </mxCell>
        <mxCell id="GTG6F6J4O82Cw8e9boyh-45" value="预售监控账户开户及预售监控账户备案" style="whiteSpace=wrap;html=1;rounded=1;" vertex="1" parent="1">
          <mxGeometry x="-240" y="-70" width="120" height="60" as="geometry" />
        </mxCell>
        <mxCell id="GTG6F6J4O82Cw8e9boyh-46" value="" style="edgeStyle=orthogonalEdgeStyle;rounded=0;orthogonalLoop=1;jettySize=auto;html=1;" edge="1" parent="1" source="GTG6F6J4O82Cw8e9boyh-47" target="GTG6F6J4O82Cw8e9boyh-49">
          <mxGeometry relative="1" as="geometry" />
        </mxCell>
        <mxCell id="GTG6F6J4O82Cw8e9boyh-47" value="商品预售许可证" style="whiteSpace=wrap;html=1;rounded=1;fillColor=#FF9999;" vertex="1" parent="1">
          <mxGeometry x="-240" y="50" width="120" height="60" as="geometry" />
        </mxCell>
        <mxCell id="GTG6F6J4O82Cw8e9boyh-48" value="" style="edgeStyle=orthogonalEdgeStyle;rounded=0;orthogonalLoop=1;jettySize=auto;html=1;" edge="1" parent="1" source="GTG6F6J4O82Cw8e9boyh-49" target="GTG6F6J4O82Cw8e9boyh-51">
          <mxGeometry relative="1" as="geometry" />
        </mxCell>
        <mxCell id="GTG6F6J4O82Cw8e9boyh-49" value="地名" style="whiteSpace=wrap;html=1;rounded=1;" vertex="1" parent="1">
          <mxGeometry x="-40" y="50" width="120" height="60" as="geometry" />
        </mxCell>
        <mxCell id="GTG6F6J4O82Cw8e9boyh-50" value="" style="edgeStyle=orthogonalEdgeStyle;rounded=0;orthogonalLoop=1;jettySize=auto;html=1;" edge="1" parent="1" source="GTG6F6J4O82Cw8e9boyh-51" target="GTG6F6J4O82Cw8e9boyh-53">
          <mxGeometry relative="1" as="geometry" />
        </mxCell>
        <mxCell id="GTG6F6J4O82Cw8e9boyh-51" value="道路（街巷、桥梁、隧道）命名" style="whiteSpace=wrap;html=1;rounded=1;" vertex="1" parent="1">
          <mxGeometry x="160" y="50" width="120" height="60" as="geometry" />
        </mxCell>
        <mxCell id="GTG6F6J4O82Cw8e9boyh-52" value="" style="edgeStyle=orthogonalEdgeStyle;rounded=0;orthogonalLoop=1;jettySize=auto;html=1;" edge="1" parent="1" source="GTG6F6J4O82Cw8e9boyh-53" target="GTG6F6J4O82Cw8e9boyh-55">
          <mxGeometry relative="1" as="geometry" />
        </mxCell>
        <mxCell id="GTG6F6J4O82Cw8e9boyh-53" value="门牌" style="whiteSpace=wrap;html=1;rounded=1;" vertex="1" parent="1">
          <mxGeometry x="160" y="170" width="120" height="60" as="geometry" />
        </mxCell>
        <mxCell id="GTG6F6J4O82Cw8e9boyh-54" value="" style="edgeStyle=orthogonalEdgeStyle;rounded=0;orthogonalLoop=1;jettySize=auto;html=1;" edge="1" parent="1" source="GTG6F6J4O82Cw8e9boyh-55" target="GTG6F6J4O82Cw8e9boyh-57">
          <mxGeometry relative="1" as="geometry" />
        </mxCell>
        <mxCell id="GTG6F6J4O82Cw8e9boyh-55" value="单独办理建设用地规划许可证" style="whiteSpace=wrap;html=1;rounded=1;" vertex="1" parent="1">
          <mxGeometry x="-40" y="170" width="120" height="60" as="geometry" />
        </mxCell>
        <mxCell id="GTG6F6J4O82Cw8e9boyh-56" value="" style="edgeStyle=orthogonalEdgeStyle;rounded=0;orthogonalLoop=1;jettySize=auto;html=1;" edge="1" parent="1" source="GTG6F6J4O82Cw8e9boyh-57" target="GTG6F6J4O82Cw8e9boyh-58">
          <mxGeometry relative="1" as="geometry" />
        </mxCell>
        <mxCell id="GTG6F6J4O82Cw8e9boyh-57" value="单独办理建设用地批准书" style="whiteSpace=wrap;html=1;rounded=1;" vertex="1" parent="1">
          <mxGeometry x="-240" y="170" width="120" height="60" as="geometry" />
        </mxCell>
        <mxCell id="GTG6F6J4O82Cw8e9boyh-58" value="办理土地有偿（划拨）使用手续和建设用地批准书" style="whiteSpace=wrap;html=1;rounded=1;" vertex="1" parent="1">
          <mxGeometry x="-240" y="280" width="120" height="60" as="geometry" />
        </mxCell>
        <mxCell id="GTG6F6J4O82Cw8e9boyh-59" value="" style="edgeStyle=orthogonalEdgeStyle;rounded=0;orthogonalLoop=1;jettySize=auto;html=1;" edge="1" parent="1" source="GTG6F6J4O82Cw8e9boyh-61" target="GTG6F6J4O82Cw8e9boyh-63">
          <mxGeometry relative="1" as="geometry" />
        </mxCell>
        <mxCell id="GTG6F6J4O82Cw8e9boyh-60" value="" style="edgeStyle=orthogonalEdgeStyle;rounded=0;orthogonalLoop=1;jettySize=auto;html=1;" edge="1" parent="1" source="GTG6F6J4O82Cw8e9boyh-61" target="GTG6F6J4O82Cw8e9boyh-72">
          <mxGeometry relative="1" as="geometry" />
        </mxCell>
        <mxCell id="GTG6F6J4O82Cw8e9boyh-61" value="实测及确权" style="whiteSpace=wrap;html=1;rounded=1;" vertex="1" parent="1">
          <mxGeometry x="-440" y="400" width="120" height="60" as="geometry" />
        </mxCell>
        <mxCell id="GTG6F6J4O82Cw8e9boyh-62" value="" style="edgeStyle=orthogonalEdgeStyle;rounded=0;orthogonalLoop=1;jettySize=auto;html=1;" edge="1" parent="1" source="GTG6F6J4O82Cw8e9boyh-63" target="GTG6F6J4O82Cw8e9boyh-65">
          <mxGeometry relative="1" as="geometry" />
        </mxCell>
        <mxCell id="GTG6F6J4O82Cw8e9boyh-63" value="产权预实测" style="whiteSpace=wrap;html=1;rounded=1;" vertex="1" parent="1">
          <mxGeometry x="-240" y="400" width="120" height="60" as="geometry" />
        </mxCell>
        <mxCell id="GTG6F6J4O82Cw8e9boyh-64" value="" style="edgeStyle=orthogonalEdgeStyle;rounded=0;orthogonalLoop=1;jettySize=auto;html=1;" edge="1" parent="1" source="GTG6F6J4O82Cw8e9boyh-65" target="GTG6F6J4O82Cw8e9boyh-67">
          <mxGeometry relative="1" as="geometry" />
        </mxCell>
        <mxCell id="GTG6F6J4O82Cw8e9boyh-65" value="已出让国有土地的土地出让金的调整" style="whiteSpace=wrap;html=1;rounded=1;" vertex="1" parent="1">
          <mxGeometry x="-40" y="400" width="120" height="60" as="geometry" />
        </mxCell>
        <mxCell id="GTG6F6J4O82Cw8e9boyh-66" value="" style="edgeStyle=orthogonalEdgeStyle;rounded=0;orthogonalLoop=1;jettySize=auto;html=1;" edge="1" parent="1" source="GTG6F6J4O82Cw8e9boyh-67" target="GTG6F6J4O82Cw8e9boyh-69">
          <mxGeometry relative="1" as="geometry" />
        </mxCell>
        <mxCell id="GTG6F6J4O82Cw8e9boyh-67" value="实测变更" style="whiteSpace=wrap;html=1;rounded=1;" vertex="1" parent="1">
          <mxGeometry x="160" y="400" width="120" height="60" as="geometry" />
        </mxCell>
        <mxCell id="GTG6F6J4O82Cw8e9boyh-68" value="" style="edgeStyle=orthogonalEdgeStyle;rounded=0;orthogonalLoop=1;jettySize=auto;html=1;" edge="1" parent="1" source="GTG6F6J4O82Cw8e9boyh-69" target="GTG6F6J4O82Cw8e9boyh-70">
          <mxGeometry relative="1" as="geometry" />
        </mxCell>
        <mxCell id="GTG6F6J4O82Cw8e9boyh-69" value="初始登记（确权）" style="whiteSpace=wrap;html=1;rounded=1;" vertex="1" parent="1">
          <mxGeometry x="160" y="520" width="120" height="60" as="geometry" />
        </mxCell>
        <mxCell id="GTG6F6J4O82Cw8e9boyh-70" value="产权办理流程（一般项目）" style="whiteSpace=wrap;html=1;rounded=1;" vertex="1" parent="1">
          <mxGeometry x="-40" y="520" width="120" height="60" as="geometry" />
        </mxCell>
        <mxCell id="GTG6F6J4O82Cw8e9boyh-71" value="" style="edgeStyle=orthogonalEdgeStyle;rounded=0;orthogonalLoop=1;jettySize=auto;html=1;" edge="1" parent="1" source="GTG6F6J4O82Cw8e9boyh-72" target="GTG6F6J4O82Cw8e9boyh-74">
          <mxGeometry relative="1" as="geometry" />
        </mxCell>
        <mxCell id="GTG6F6J4O82Cw8e9boyh-72" value="旧改" style="whiteSpace=wrap;html=1;rounded=1;" vertex="1" parent="1">
          <mxGeometry x="-440" y="640" width="120" height="60" as="geometry" />
        </mxCell>
        <mxCell id="GTG6F6J4O82Cw8e9boyh-73" value="" style="edgeStyle=orthogonalEdgeStyle;rounded=0;orthogonalLoop=1;jettySize=auto;html=1;" edge="1" parent="1" source="GTG6F6J4O82Cw8e9boyh-74" target="GTG6F6J4O82Cw8e9boyh-75">
          <mxGeometry relative="1" as="geometry" />
        </mxCell>
        <mxCell id="GTG6F6J4O82Cw8e9boyh-74" value="集体建设用地申请转为国有建设用地" style="whiteSpace=wrap;html=1;rounded=1;" vertex="1" parent="1">
          <mxGeometry x="-240" y="640" width="120" height="60" as="geometry" />
        </mxCell>
        <mxCell id="GTG6F6J4O82Cw8e9boyh-75" value="土地使用权、房屋所有权的注销登记" style="whiteSpace=wrap;html=1;rounded=1;" vertex="1" parent="1">
          <mxGeometry x="-40" y="640" width="120" height="60" as="geometry" />
        </mxCell>
        <mxCell id="GTG6F6J4O82Cw8e9boyh-78" value="" style="edgeStyle=orthogonalEdgeStyle;rounded=0;orthogonalLoop=1;jettySize=auto;html=1;" edge="1" parent="1" source="GTG6F6J4O82Cw8e9boyh-76" target="GTG6F6J4O82Cw8e9boyh-77">
          <mxGeometry relative="1" as="geometry" />
        </mxCell>
        <mxCell id="GTG6F6J4O82Cw8e9boyh-76" value="国有土地使用证" style="rounded=1;whiteSpace=wrap;html=1;" vertex="1" parent="1">
          <mxGeometry x="-680" y="-1040" width="120" height="60" as="geometry" />
        </mxCell>
        <mxCell id="GTG6F6J4O82Cw8e9boyh-80" value="" style="edgeStyle=orthogonalEdgeStyle;rounded=0;orthogonalLoop=1;jettySize=auto;html=1;" edge="1" parent="1" source="GTG6F6J4O82Cw8e9boyh-77" target="GTG6F6J4O82Cw8e9boyh-79">
          <mxGeometry relative="1" as="geometry" />
        </mxCell>
        <mxCell id="GTG6F6J4O82Cw8e9boyh-77" value="建设用地规划许可证" style="whiteSpace=wrap;html=1;rounded=1;" vertex="1" parent="1">
          <mxGeometry x="-680" y="-900" width="120" height="60" as="geometry" />
        </mxCell>
        <mxCell id="GTG6F6J4O82Cw8e9boyh-82" value="" style="edgeStyle=orthogonalEdgeStyle;rounded=0;orthogonalLoop=1;jettySize=auto;html=1;" edge="1" parent="1" source="GTG6F6J4O82Cw8e9boyh-79" target="GTG6F6J4O82Cw8e9boyh-81">
          <mxGeometry relative="1" as="geometry" />
        </mxCell>
        <mxCell id="GTG6F6J4O82Cw8e9boyh-79" value="建筑工程规划许可证" style="whiteSpace=wrap;html=1;rounded=1;" vertex="1" parent="1">
          <mxGeometry x="-680" y="-760" width="120" height="60" as="geometry" />
        </mxCell>
        <mxCell id="GTG6F6J4O82Cw8e9boyh-84" value="" style="edgeStyle=orthogonalEdgeStyle;rounded=0;orthogonalLoop=1;jettySize=auto;html=1;" edge="1" parent="1" source="GTG6F6J4O82Cw8e9boyh-81" target="GTG6F6J4O82Cw8e9boyh-83">
          <mxGeometry relative="1" as="geometry" />
        </mxCell>
        <mxCell id="GTG6F6J4O82Cw8e9boyh-81" value="建筑工程施工许可证" style="whiteSpace=wrap;html=1;rounded=1;" vertex="1" parent="1">
          <mxGeometry x="-680" y="-620" width="120" height="60" as="geometry" />
        </mxCell>
        <mxCell id="GTG6F6J4O82Cw8e9boyh-83" value="商品房预售许可证" style="whiteSpace=wrap;html=1;rounded=1;" vertex="1" parent="1">
          <mxGeometry x="-680" y="-480" width="120" height="60" as="geometry" />
        </mxCell>
        <mxCell id="GTG6F6J4O82Cw8e9boyh-87" value="" style="edgeStyle=orthogonalEdgeStyle;rounded=0;orthogonalLoop=1;jettySize=auto;html=1;" edge="1" parent="1" source="GTG6F6J4O82Cw8e9boyh-85" target="GTG6F6J4O82Cw8e9boyh-86">
          <mxGeometry relative="1" as="geometry" />
        </mxCell>
        <mxCell id="GTG6F6J4O82Cw8e9boyh-97" value="" style="edgeStyle=orthogonalEdgeStyle;rounded=0;orthogonalLoop=1;jettySize=auto;html=1;" edge="1" parent="1" source="GTG6F6J4O82Cw8e9boyh-85" target="GTG6F6J4O82Cw8e9boyh-96">
          <mxGeometry relative="1" as="geometry" />
        </mxCell>
        <mxCell id="GTG6F6J4O82Cw8e9boyh-85" value="用地报批" style="rounded=1;whiteSpace=wrap;html=1;" vertex="1" parent="1">
          <mxGeometry x="360" y="-960" width="120" height="60" as="geometry" />
        </mxCell>
        <mxCell id="GTG6F6J4O82Cw8e9boyh-89" value="" style="edgeStyle=orthogonalEdgeStyle;rounded=0;orthogonalLoop=1;jettySize=auto;html=1;" edge="1" parent="1" source="GTG6F6J4O82Cw8e9boyh-86" target="GTG6F6J4O82Cw8e9boyh-88">
          <mxGeometry relative="1" as="geometry" />
        </mxCell>
        <mxCell id="GTG6F6J4O82Cw8e9boyh-86" value="项目建议书批复" style="whiteSpace=wrap;html=1;rounded=1;" vertex="1" parent="1">
          <mxGeometry x="560" y="-960" width="120" height="60" as="geometry" />
        </mxCell>
        <mxCell id="GTG6F6J4O82Cw8e9boyh-91" value="" style="edgeStyle=orthogonalEdgeStyle;rounded=0;orthogonalLoop=1;jettySize=auto;html=1;" edge="1" parent="1" source="GTG6F6J4O82Cw8e9boyh-88" target="GTG6F6J4O82Cw8e9boyh-90">
          <mxGeometry relative="1" as="geometry" />
        </mxCell>
        <mxCell id="GTG6F6J4O82Cw8e9boyh-88" value="用地选址意见书批复" style="whiteSpace=wrap;html=1;rounded=1;" vertex="1" parent="1">
          <mxGeometry x="760" y="-960" width="120" height="60" as="geometry" />
        </mxCell>
        <mxCell id="GTG6F6J4O82Cw8e9boyh-93" value="" style="edgeStyle=orthogonalEdgeStyle;rounded=0;orthogonalLoop=1;jettySize=auto;html=1;" edge="1" parent="1" source="GTG6F6J4O82Cw8e9boyh-90" target="GTG6F6J4O82Cw8e9boyh-92">
          <mxGeometry relative="1" as="geometry" />
        </mxCell>
        <mxCell id="GTG6F6J4O82Cw8e9boyh-90" value="用地预审" style="whiteSpace=wrap;html=1;rounded=1;" vertex="1" parent="1">
          <mxGeometry x="960" y="-960" width="120" height="60" as="geometry" />
        </mxCell>
        <mxCell id="GTG6F6J4O82Cw8e9boyh-95" value="" style="edgeStyle=orthogonalEdgeStyle;rounded=0;orthogonalLoop=1;jettySize=auto;html=1;" edge="1" parent="1" source="GTG6F6J4O82Cw8e9boyh-92" target="GTG6F6J4O82Cw8e9boyh-94">
          <mxGeometry relative="1" as="geometry" />
        </mxCell>
        <mxCell id="GTG6F6J4O82Cw8e9boyh-92" value="建设用地规划许可证（含规划设计条件）" style="whiteSpace=wrap;html=1;rounded=1;fillColor=#FF9999;" vertex="1" parent="1">
          <mxGeometry x="960" y="-850" width="120" height="60" as="geometry" />
        </mxCell>
        <mxCell id="GTG6F6J4O82Cw8e9boyh-94" value="土地划拨使用手续和建设用地批准书" style="whiteSpace=wrap;html=1;rounded=1;" vertex="1" parent="1">
          <mxGeometry x="760" y="-850" width="120" height="60" as="geometry" />
        </mxCell>
        <mxCell id="GTG6F6J4O82Cw8e9boyh-99" value="" style="edgeStyle=orthogonalEdgeStyle;rounded=0;orthogonalLoop=1;jettySize=auto;html=1;" edge="1" parent="1" source="GTG6F6J4O82Cw8e9boyh-96" target="GTG6F6J4O82Cw8e9boyh-98">
          <mxGeometry relative="1" as="geometry" />
        </mxCell>
        <mxCell id="GTG6F6J4O82Cw8e9boyh-109" value="" style="edgeStyle=orthogonalEdgeStyle;rounded=0;orthogonalLoop=1;jettySize=auto;html=1;" edge="1" parent="1" source="GTG6F6J4O82Cw8e9boyh-96" target="GTG6F6J4O82Cw8e9boyh-108">
          <mxGeometry relative="1" as="geometry" />
        </mxCell>
        <mxCell id="GTG6F6J4O82Cw8e9boyh-96" value="规划报建" style="whiteSpace=wrap;html=1;rounded=1;" vertex="1" parent="1">
          <mxGeometry x="360" y="-760" width="120" height="60" as="geometry" />
        </mxCell>
        <mxCell id="GTG6F6J4O82Cw8e9boyh-101" value="" style="edgeStyle=orthogonalEdgeStyle;rounded=0;orthogonalLoop=1;jettySize=auto;html=1;" edge="1" parent="1" source="GTG6F6J4O82Cw8e9boyh-98" target="GTG6F6J4O82Cw8e9boyh-100">
          <mxGeometry relative="1" as="geometry" />
        </mxCell>
        <mxCell id="GTG6F6J4O82Cw8e9boyh-98" value="项目可研批复" style="whiteSpace=wrap;html=1;rounded=1;" vertex="1" parent="1">
          <mxGeometry x="560" y="-760" width="120" height="60" as="geometry" />
        </mxCell>
        <mxCell id="GTG6F6J4O82Cw8e9boyh-103" value="" style="edgeStyle=orthogonalEdgeStyle;rounded=0;orthogonalLoop=1;jettySize=auto;html=1;" edge="1" parent="1" source="GTG6F6J4O82Cw8e9boyh-100" target="GTG6F6J4O82Cw8e9boyh-102">
          <mxGeometry relative="1" as="geometry" />
        </mxCell>
        <mxCell id="GTG6F6J4O82Cw8e9boyh-100" value="规划设计条件" style="whiteSpace=wrap;html=1;rounded=1;" vertex="1" parent="1">
          <mxGeometry x="760" y="-760" width="120" height="60" as="geometry" />
        </mxCell>
        <mxCell id="GTG6F6J4O82Cw8e9boyh-105" value="" style="edgeStyle=orthogonalEdgeStyle;rounded=0;orthogonalLoop=1;jettySize=auto;html=1;" edge="1" parent="1" source="GTG6F6J4O82Cw8e9boyh-102" target="GTG6F6J4O82Cw8e9boyh-104">
          <mxGeometry relative="1" as="geometry" />
        </mxCell>
        <mxCell id="GTG6F6J4O82Cw8e9boyh-102" value="修建性详细规划" style="whiteSpace=wrap;html=1;rounded=1;" vertex="1" parent="1">
          <mxGeometry x="960" y="-760" width="120" height="60" as="geometry" />
        </mxCell>
        <mxCell id="GTG6F6J4O82Cw8e9boyh-104" value="建设工程规划许可证" style="whiteSpace=wrap;html=1;rounded=1;fillColor=#FF9999;" vertex="1" parent="1">
          <mxGeometry x="960" y="-640" width="120" height="60" as="geometry" />
        </mxCell>
        <mxCell id="GTG6F6J4O82Cw8e9boyh-111" value="" style="edgeStyle=orthogonalEdgeStyle;rounded=0;orthogonalLoop=1;jettySize=auto;html=1;" edge="1" parent="1" source="GTG6F6J4O82Cw8e9boyh-108" target="GTG6F6J4O82Cw8e9boyh-110">
          <mxGeometry relative="1" as="geometry" />
        </mxCell>
        <mxCell id="GTG6F6J4O82Cw8e9boyh-135" value="" style="edgeStyle=orthogonalEdgeStyle;rounded=0;orthogonalLoop=1;jettySize=auto;html=1;" edge="1" parent="1" source="GTG6F6J4O82Cw8e9boyh-108" target="GTG6F6J4O82Cw8e9boyh-134">
          <mxGeometry relative="1" as="geometry" />
        </mxCell>
        <mxCell id="GTG6F6J4O82Cw8e9boyh-108" value="项目实施" style="whiteSpace=wrap;html=1;rounded=1;" vertex="1" parent="1">
          <mxGeometry x="360" y="-560" width="120" height="60" as="geometry" />
        </mxCell>
        <mxCell id="GTG6F6J4O82Cw8e9boyh-113" value="" style="edgeStyle=orthogonalEdgeStyle;rounded=0;orthogonalLoop=1;jettySize=auto;html=1;" edge="1" parent="1" source="GTG6F6J4O82Cw8e9boyh-110" target="GTG6F6J4O82Cw8e9boyh-112">
          <mxGeometry relative="1" as="geometry" />
        </mxCell>
        <mxCell id="GTG6F6J4O82Cw8e9boyh-110" value="建设工程施工许可" style="whiteSpace=wrap;html=1;rounded=1;fillColor=#FF9999;" vertex="1" parent="1">
          <mxGeometry x="560" y="-560" width="120" height="60" as="geometry" />
        </mxCell>
        <mxCell id="GTG6F6J4O82Cw8e9boyh-115" value="" style="edgeStyle=orthogonalEdgeStyle;rounded=0;orthogonalLoop=1;jettySize=auto;html=1;" edge="1" parent="1" source="GTG6F6J4O82Cw8e9boyh-112" target="GTG6F6J4O82Cw8e9boyh-114">
          <mxGeometry relative="1" as="geometry" />
        </mxCell>
        <mxCell id="GTG6F6J4O82Cw8e9boyh-112" value="施工图设计文件审查、备案" style="whiteSpace=wrap;html=1;rounded=1;" vertex="1" parent="1">
          <mxGeometry x="760" y="-560" width="120" height="60" as="geometry" />
        </mxCell>
        <mxCell id="GTG6F6J4O82Cw8e9boyh-117" value="" style="edgeStyle=orthogonalEdgeStyle;rounded=0;orthogonalLoop=1;jettySize=auto;html=1;" edge="1" parent="1" source="GTG6F6J4O82Cw8e9boyh-114" target="GTG6F6J4O82Cw8e9boyh-116">
          <mxGeometry relative="1" as="geometry" />
        </mxCell>
        <mxCell id="GTG6F6J4O82Cw8e9boyh-114" value="消防设计审查" style="whiteSpace=wrap;html=1;rounded=1;" vertex="1" parent="1">
          <mxGeometry x="960" y="-560" width="120" height="60" as="geometry" />
        </mxCell>
        <mxCell id="GTG6F6J4O82Cw8e9boyh-119" value="" style="edgeStyle=orthogonalEdgeStyle;rounded=0;orthogonalLoop=1;jettySize=auto;html=1;" edge="1" parent="1" source="GTG6F6J4O82Cw8e9boyh-116" target="GTG6F6J4O82Cw8e9boyh-118">
          <mxGeometry relative="1" as="geometry" />
        </mxCell>
        <mxCell id="GTG6F6J4O82Cw8e9boyh-116" value="防雷设计审查" style="whiteSpace=wrap;html=1;rounded=1;" vertex="1" parent="1">
          <mxGeometry x="960" y="-445" width="120" height="60" as="geometry" />
        </mxCell>
        <mxCell id="GTG6F6J4O82Cw8e9boyh-121" value="" style="edgeStyle=orthogonalEdgeStyle;rounded=0;orthogonalLoop=1;jettySize=auto;html=1;" edge="1" parent="1" source="GTG6F6J4O82Cw8e9boyh-118" target="GTG6F6J4O82Cw8e9boyh-120">
          <mxGeometry relative="1" as="geometry" />
        </mxCell>
        <mxCell id="GTG6F6J4O82Cw8e9boyh-118" value="临时用水、电" style="whiteSpace=wrap;html=1;rounded=1;" vertex="1" parent="1">
          <mxGeometry x="760" y="-445" width="120" height="60" as="geometry" />
        </mxCell>
        <mxCell id="GTG6F6J4O82Cw8e9boyh-123" value="" style="edgeStyle=orthogonalEdgeStyle;rounded=0;orthogonalLoop=1;jettySize=auto;html=1;" edge="1" parent="1" source="GTG6F6J4O82Cw8e9boyh-120" target="GTG6F6J4O82Cw8e9boyh-122">
          <mxGeometry relative="1" as="geometry" />
        </mxCell>
        <mxCell id="GTG6F6J4O82Cw8e9boyh-120" value="永久用水、电" style="whiteSpace=wrap;html=1;rounded=1;" vertex="1" parent="1">
          <mxGeometry x="560" y="-445" width="120" height="60" as="geometry" />
        </mxCell>
        <mxCell id="GTG6F6J4O82Cw8e9boyh-125" value="" style="edgeStyle=orthogonalEdgeStyle;rounded=0;orthogonalLoop=1;jettySize=auto;html=1;" edge="1" parent="1" source="GTG6F6J4O82Cw8e9boyh-122" target="GTG6F6J4O82Cw8e9boyh-124">
          <mxGeometry relative="1" as="geometry" />
        </mxCell>
        <mxCell id="GTG6F6J4O82Cw8e9boyh-122" value="市政管道、道路报建" style="whiteSpace=wrap;html=1;rounded=1;" vertex="1" parent="1">
          <mxGeometry x="560" y="-330" width="120" height="60" as="geometry" />
        </mxCell>
        <mxCell id="GTG6F6J4O82Cw8e9boyh-127" value="" style="edgeStyle=orthogonalEdgeStyle;rounded=0;orthogonalLoop=1;jettySize=auto;html=1;" edge="1" parent="1" source="GTG6F6J4O82Cw8e9boyh-124" target="GTG6F6J4O82Cw8e9boyh-126">
          <mxGeometry relative="1" as="geometry" />
        </mxCell>
        <mxCell id="GTG6F6J4O82Cw8e9boyh-124" value="招标" style="whiteSpace=wrap;html=1;rounded=1;" vertex="1" parent="1">
          <mxGeometry x="760" y="-330" width="120" height="60" as="geometry" />
        </mxCell>
        <mxCell id="GTG6F6J4O82Cw8e9boyh-129" value="" style="edgeStyle=orthogonalEdgeStyle;rounded=0;orthogonalLoop=1;jettySize=auto;html=1;" edge="1" parent="1" source="GTG6F6J4O82Cw8e9boyh-126" target="GTG6F6J4O82Cw8e9boyh-128">
          <mxGeometry relative="1" as="geometry" />
        </mxCell>
        <mxCell id="GTG6F6J4O82Cw8e9boyh-126" value="施工预算" style="whiteSpace=wrap;html=1;rounded=1;" vertex="1" parent="1">
          <mxGeometry x="960" y="-330" width="120" height="60" as="geometry" />
        </mxCell>
        <mxCell id="GTG6F6J4O82Cw8e9boyh-131" value="" style="edgeStyle=orthogonalEdgeStyle;rounded=0;orthogonalLoop=1;jettySize=auto;html=1;" edge="1" parent="1" source="GTG6F6J4O82Cw8e9boyh-128" target="GTG6F6J4O82Cw8e9boyh-130">
          <mxGeometry relative="1" as="geometry" />
        </mxCell>
        <mxCell id="GTG6F6J4O82Cw8e9boyh-128" value="财政评审" style="whiteSpace=wrap;html=1;rounded=1;" vertex="1" parent="1">
          <mxGeometry x="960" y="-210" width="120" height="60" as="geometry" />
        </mxCell>
        <mxCell id="GTG6F6J4O82Cw8e9boyh-133" value="" style="edgeStyle=orthogonalEdgeStyle;rounded=0;orthogonalLoop=1;jettySize=auto;html=1;" edge="1" parent="1" source="GTG6F6J4O82Cw8e9boyh-130" target="GTG6F6J4O82Cw8e9boyh-132">
          <mxGeometry relative="1" as="geometry" />
        </mxCell>
        <mxCell id="GTG6F6J4O82Cw8e9boyh-130" value="缴纳相关费用" style="whiteSpace=wrap;html=1;rounded=1;" vertex="1" parent="1">
          <mxGeometry x="760" y="-210" width="120" height="60" as="geometry" />
        </mxCell>
        <mxCell id="GTG6F6J4O82Cw8e9boyh-132" value="质、安监备案" style="whiteSpace=wrap;html=1;rounded=1;" vertex="1" parent="1">
          <mxGeometry x="560" y="-210" width="120" height="60" as="geometry" />
        </mxCell>
        <mxCell id="GTG6F6J4O82Cw8e9boyh-137" value="" style="edgeStyle=orthogonalEdgeStyle;rounded=0;orthogonalLoop=1;jettySize=auto;html=1;" edge="1" parent="1" source="GTG6F6J4O82Cw8e9boyh-134" target="GTG6F6J4O82Cw8e9boyh-136">
          <mxGeometry relative="1" as="geometry" />
        </mxCell>
        <mxCell id="GTG6F6J4O82Cw8e9boyh-134" value="竣工使用" style="whiteSpace=wrap;html=1;rounded=1;" vertex="1" parent="1">
          <mxGeometry x="360" y="-80" width="120" height="60" as="geometry" />
        </mxCell>
        <mxCell id="GTG6F6J4O82Cw8e9boyh-139" value="" style="edgeStyle=orthogonalEdgeStyle;rounded=0;orthogonalLoop=1;jettySize=auto;html=1;" edge="1" parent="1" source="GTG6F6J4O82Cw8e9boyh-136" target="GTG6F6J4O82Cw8e9boyh-138">
          <mxGeometry relative="1" as="geometry" />
        </mxCell>
        <mxCell id="GTG6F6J4O82Cw8e9boyh-136" value="办理建设工程" style="whiteSpace=wrap;html=1;rounded=1;" vertex="1" parent="1">
          <mxGeometry x="560" y="-80" width="120" height="60" as="geometry" />
        </mxCell>
        <mxCell id="GTG6F6J4O82Cw8e9boyh-141" value="" style="edgeStyle=orthogonalEdgeStyle;rounded=0;orthogonalLoop=1;jettySize=auto;html=1;" edge="1" parent="1" source="GTG6F6J4O82Cw8e9boyh-138" target="GTG6F6J4O82Cw8e9boyh-140">
          <mxGeometry relative="1" as="geometry" />
        </mxCell>
        <mxCell id="GTG6F6J4O82Cw8e9boyh-138" value="防雷设施验收合格证" style="whiteSpace=wrap;html=1;rounded=1;" vertex="1" parent="1">
          <mxGeometry x="760" y="-80" width="120" height="60" as="geometry" />
        </mxCell>
        <mxCell id="GTG6F6J4O82Cw8e9boyh-143" value="" style="edgeStyle=orthogonalEdgeStyle;rounded=0;orthogonalLoop=1;jettySize=auto;html=1;" edge="1" parent="1" source="GTG6F6J4O82Cw8e9boyh-140" target="GTG6F6J4O82Cw8e9boyh-142">
          <mxGeometry relative="1" as="geometry" />
        </mxCell>
        <mxCell id="GTG6F6J4O82Cw8e9boyh-140" value="地下室验收报告" style="whiteSpace=wrap;html=1;rounded=1;" vertex="1" parent="1">
          <mxGeometry x="960" y="-80" width="120" height="60" as="geometry" />
        </mxCell>
        <mxCell id="GTG6F6J4O82Cw8e9boyh-145" value="" style="edgeStyle=orthogonalEdgeStyle;rounded=0;orthogonalLoop=1;jettySize=auto;html=1;" edge="1" parent="1" source="GTG6F6J4O82Cw8e9boyh-142" target="GTG6F6J4O82Cw8e9boyh-144">
          <mxGeometry relative="1" as="geometry" />
        </mxCell>
        <mxCell id="GTG6F6J4O82Cw8e9boyh-142" value="建筑行业环境保护验收申请" style="whiteSpace=wrap;html=1;rounded=1;" vertex="1" parent="1">
          <mxGeometry x="960" y="30" width="120" height="60" as="geometry" />
        </mxCell>
        <mxCell id="GTG6F6J4O82Cw8e9boyh-147" value="" style="edgeStyle=orthogonalEdgeStyle;rounded=0;orthogonalLoop=1;jettySize=auto;html=1;" edge="1" parent="1" source="GTG6F6J4O82Cw8e9boyh-144" target="GTG6F6J4O82Cw8e9boyh-146">
          <mxGeometry relative="1" as="geometry" />
        </mxCell>
        <mxCell id="GTG6F6J4O82Cw8e9boyh-144" value="安全评价书" style="whiteSpace=wrap;html=1;rounded=1;" vertex="1" parent="1">
          <mxGeometry x="760" y="30" width="120" height="60" as="geometry" />
        </mxCell>
        <mxCell id="GTG6F6J4O82Cw8e9boyh-149" value="" style="edgeStyle=orthogonalEdgeStyle;rounded=0;orthogonalLoop=1;jettySize=auto;html=1;" edge="1" parent="1" source="GTG6F6J4O82Cw8e9boyh-146" target="GTG6F6J4O82Cw8e9boyh-148">
          <mxGeometry relative="1" as="geometry" />
        </mxCell>
        <mxCell id="GTG6F6J4O82Cw8e9boyh-146" value="园林绿化、环卫设施验收" style="whiteSpace=wrap;html=1;rounded=1;" vertex="1" parent="1">
          <mxGeometry x="560" y="30" width="120" height="60" as="geometry" />
        </mxCell>
        <mxCell id="GTG6F6J4O82Cw8e9boyh-151" value="" style="edgeStyle=orthogonalEdgeStyle;rounded=0;orthogonalLoop=1;jettySize=auto;html=1;" edge="1" parent="1" source="GTG6F6J4O82Cw8e9boyh-148" target="GTG6F6J4O82Cw8e9boyh-150">
          <mxGeometry relative="1" as="geometry" />
        </mxCell>
        <mxCell id="GTG6F6J4O82Cw8e9boyh-148" value="建筑工程竣工验收" style="whiteSpace=wrap;html=1;rounded=1;" vertex="1" parent="1">
          <mxGeometry x="560" y="140" width="120" height="60" as="geometry" />
        </mxCell>
        <mxCell id="GTG6F6J4O82Cw8e9boyh-153" value="" style="edgeStyle=orthogonalEdgeStyle;rounded=0;orthogonalLoop=1;jettySize=auto;html=1;" edge="1" parent="1" source="GTG6F6J4O82Cw8e9boyh-150" target="GTG6F6J4O82Cw8e9boyh-152">
          <mxGeometry relative="1" as="geometry" />
        </mxCell>
        <mxCell id="GTG6F6J4O82Cw8e9boyh-150" value="验收备案" style="whiteSpace=wrap;html=1;rounded=1;" vertex="1" parent="1">
          <mxGeometry x="760" y="140" width="120" height="60" as="geometry" />
        </mxCell>
        <mxCell id="GTG6F6J4O82Cw8e9boyh-155" value="" style="edgeStyle=orthogonalEdgeStyle;rounded=0;orthogonalLoop=1;jettySize=auto;html=1;" edge="1" parent="1" source="GTG6F6J4O82Cw8e9boyh-152" target="GTG6F6J4O82Cw8e9boyh-154">
          <mxGeometry relative="1" as="geometry" />
        </mxCell>
        <mxCell id="GTG6F6J4O82Cw8e9boyh-152" value="入住许可证" style="whiteSpace=wrap;html=1;rounded=1;" vertex="1" parent="1">
          <mxGeometry x="960" y="140" width="120" height="60" as="geometry" />
        </mxCell>
        <mxCell id="GTG6F6J4O82Cw8e9boyh-157" value="" style="edgeStyle=orthogonalEdgeStyle;rounded=0;orthogonalLoop=1;jettySize=auto;html=1;" edge="1" parent="1" source="GTG6F6J4O82Cw8e9boyh-154" target="GTG6F6J4O82Cw8e9boyh-156">
          <mxGeometry relative="1" as="geometry" />
        </mxCell>
        <mxCell id="GTG6F6J4O82Cw8e9boyh-154" value="环境综合验收合格证" style="whiteSpace=wrap;html=1;rounded=1;" vertex="1" parent="1">
          <mxGeometry x="960" y="260" width="120" height="60" as="geometry" />
        </mxCell>
        <mxCell id="GTG6F6J4O82Cw8e9boyh-159" value="" style="edgeStyle=orthogonalEdgeStyle;rounded=0;orthogonalLoop=1;jettySize=auto;html=1;" edge="1" parent="1" source="GTG6F6J4O82Cw8e9boyh-156" target="GTG6F6J4O82Cw8e9boyh-158">
          <mxGeometry relative="1" as="geometry" />
        </mxCell>
        <mxCell id="GTG6F6J4O82Cw8e9boyh-156" value="交档案" style="whiteSpace=wrap;html=1;rounded=1;" vertex="1" parent="1">
          <mxGeometry x="760" y="260" width="120" height="60" as="geometry" />
        </mxCell>
        <mxCell id="GTG6F6J4O82Cw8e9boyh-158" value="房地产权证办理" style="whiteSpace=wrap;html=1;rounded=1;" vertex="1" parent="1">
          <mxGeometry x="560" y="260" width="120" height="60" as="geometry" />
        </mxCell>
        <mxCell id="GTG6F6J4O82Cw8e9boyh-162" value="" style="edgeStyle=orthogonalEdgeStyle;rounded=0;orthogonalLoop=1;jettySize=auto;html=1;" edge="1" parent="1" source="GTG6F6J4O82Cw8e9boyh-160" target="GTG6F6J4O82Cw8e9boyh-161">
          <mxGeometry relative="1" as="geometry" />
        </mxCell>
        <mxCell id="GTG6F6J4O82Cw8e9boyh-231" value="" style="edgeStyle=orthogonalEdgeStyle;rounded=0;orthogonalLoop=1;jettySize=auto;html=1;entryX=0.5;entryY=0;entryDx=0;entryDy=0;" edge="1" parent="1" source="GTG6F6J4O82Cw8e9boyh-160" target="GTG6F6J4O82Cw8e9boyh-189">
          <mxGeometry relative="1" as="geometry">
            <mxPoint x="1290" y="-820" as="targetPoint" />
          </mxGeometry>
        </mxCell>
        <mxCell id="GTG6F6J4O82Cw8e9boyh-160" value="房地产建设" style="rounded=1;whiteSpace=wrap;html=1;fillColor=none;" vertex="1" parent="1">
          <mxGeometry x="1230" y="-960" width="120" height="60" as="geometry" />
        </mxCell>
        <mxCell id="GTG6F6J4O82Cw8e9boyh-164" value="" style="edgeStyle=orthogonalEdgeStyle;rounded=0;orthogonalLoop=1;jettySize=auto;html=1;" edge="1" parent="1" source="GTG6F6J4O82Cw8e9boyh-161" target="GTG6F6J4O82Cw8e9boyh-163">
          <mxGeometry relative="1" as="geometry" />
        </mxCell>
        <mxCell id="GTG6F6J4O82Cw8e9boyh-172" value="" style="edgeStyle=orthogonalEdgeStyle;rounded=0;orthogonalLoop=1;jettySize=auto;html=1;" edge="1" parent="1" source="GTG6F6J4O82Cw8e9boyh-161" target="GTG6F6J4O82Cw8e9boyh-171">
          <mxGeometry relative="1" as="geometry" />
        </mxCell>
        <mxCell id="GTG6F6J4O82Cw8e9boyh-161" value="项目前期阶段" style="whiteSpace=wrap;html=1;fillColor=none;rounded=1;" vertex="1" parent="1">
          <mxGeometry x="1430" y="-960" width="120" height="60" as="geometry" />
        </mxCell>
        <mxCell id="GTG6F6J4O82Cw8e9boyh-166" value="" style="edgeStyle=orthogonalEdgeStyle;rounded=0;orthogonalLoop=1;jettySize=auto;html=1;" edge="1" parent="1" source="GTG6F6J4O82Cw8e9boyh-163" target="GTG6F6J4O82Cw8e9boyh-165">
          <mxGeometry relative="1" as="geometry" />
        </mxCell>
        <mxCell id="GTG6F6J4O82Cw8e9boyh-163" value="项目建议书（申请报告）" style="whiteSpace=wrap;html=1;fillColor=none;rounded=1;" vertex="1" parent="1">
          <mxGeometry x="1630" y="-960" width="120" height="60" as="geometry" />
        </mxCell>
        <mxCell id="GTG6F6J4O82Cw8e9boyh-168" value="" style="edgeStyle=orthogonalEdgeStyle;rounded=0;orthogonalLoop=1;jettySize=auto;html=1;" edge="1" parent="1" source="GTG6F6J4O82Cw8e9boyh-165" target="GTG6F6J4O82Cw8e9boyh-167">
          <mxGeometry relative="1" as="geometry" />
        </mxCell>
        <mxCell id="GTG6F6J4O82Cw8e9boyh-165" value="项目选址方案" style="whiteSpace=wrap;html=1;fillColor=none;rounded=1;" vertex="1" parent="1">
          <mxGeometry x="1830" y="-960" width="120" height="60" as="geometry" />
        </mxCell>
        <mxCell id="GTG6F6J4O82Cw8e9boyh-170" value="" style="edgeStyle=orthogonalEdgeStyle;rounded=0;orthogonalLoop=1;jettySize=auto;html=1;" edge="1" parent="1" source="GTG6F6J4O82Cw8e9boyh-167" target="GTG6F6J4O82Cw8e9boyh-169">
          <mxGeometry relative="1" as="geometry" />
        </mxCell>
        <mxCell id="GTG6F6J4O82Cw8e9boyh-167" value="设计任务书、投资计划" style="whiteSpace=wrap;html=1;fillColor=none;rounded=1;" vertex="1" parent="1">
          <mxGeometry x="1830" y="-850" width="120" height="60" as="geometry" />
        </mxCell>
        <mxCell id="GTG6F6J4O82Cw8e9boyh-169" value="初步设计（建设方案）" style="whiteSpace=wrap;html=1;fillColor=none;rounded=1;" vertex="1" parent="1">
          <mxGeometry x="1630" y="-850" width="120" height="60" as="geometry" />
        </mxCell>
        <mxCell id="GTG6F6J4O82Cw8e9boyh-174" value="" style="edgeStyle=orthogonalEdgeStyle;rounded=0;orthogonalLoop=1;jettySize=auto;html=1;" edge="1" parent="1" source="GTG6F6J4O82Cw8e9boyh-171" target="GTG6F6J4O82Cw8e9boyh-173">
          <mxGeometry relative="1" as="geometry" />
        </mxCell>
        <mxCell id="GTG6F6J4O82Cw8e9boyh-178" value="" style="edgeStyle=orthogonalEdgeStyle;rounded=0;orthogonalLoop=1;jettySize=auto;html=1;" edge="1" parent="1" source="GTG6F6J4O82Cw8e9boyh-171" target="GTG6F6J4O82Cw8e9boyh-177">
          <mxGeometry relative="1" as="geometry" />
        </mxCell>
        <mxCell id="GTG6F6J4O82Cw8e9boyh-171" value="项目准备阶段" style="whiteSpace=wrap;html=1;fillColor=none;rounded=1;" vertex="1" parent="1">
          <mxGeometry x="1430" y="-770" width="120" height="60" as="geometry" />
        </mxCell>
        <mxCell id="GTG6F6J4O82Cw8e9boyh-176" value="" style="edgeStyle=orthogonalEdgeStyle;rounded=0;orthogonalLoop=1;jettySize=auto;html=1;" edge="1" parent="1" source="GTG6F6J4O82Cw8e9boyh-173" target="GTG6F6J4O82Cw8e9boyh-175">
          <mxGeometry relative="1" as="geometry" />
        </mxCell>
        <mxCell id="GTG6F6J4O82Cw8e9boyh-173" value="施工图设计、图纸审查" style="whiteSpace=wrap;html=1;fillColor=none;rounded=1;" vertex="1" parent="1">
          <mxGeometry x="1630" y="-770" width="120" height="60" as="geometry" />
        </mxCell>
        <mxCell id="GTG6F6J4O82Cw8e9boyh-175" value="项目征地、报建、招标" style="whiteSpace=wrap;html=1;fillColor=none;rounded=1;" vertex="1" parent="1">
          <mxGeometry x="1830" y="-770" width="120" height="60" as="geometry" />
        </mxCell>
        <mxCell id="GTG6F6J4O82Cw8e9boyh-180" value="" style="edgeStyle=orthogonalEdgeStyle;rounded=0;orthogonalLoop=1;jettySize=auto;html=1;" edge="1" parent="1" source="GTG6F6J4O82Cw8e9boyh-177" target="GTG6F6J4O82Cw8e9boyh-179">
          <mxGeometry relative="1" as="geometry" />
        </mxCell>
        <mxCell id="GTG6F6J4O82Cw8e9boyh-182" value="" style="edgeStyle=orthogonalEdgeStyle;rounded=0;orthogonalLoop=1;jettySize=auto;html=1;" edge="1" parent="1" source="GTG6F6J4O82Cw8e9boyh-177" target="GTG6F6J4O82Cw8e9boyh-181">
          <mxGeometry relative="1" as="geometry" />
        </mxCell>
        <mxCell id="GTG6F6J4O82Cw8e9boyh-177" value="项目施工阶段" style="whiteSpace=wrap;html=1;fillColor=none;rounded=1;" vertex="1" parent="1">
          <mxGeometry x="1430" y="-630" width="120" height="60" as="geometry" />
        </mxCell>
        <mxCell id="GTG6F6J4O82Cw8e9boyh-179" value="组织施工（安全、监理）" style="whiteSpace=wrap;html=1;fillColor=none;rounded=1;" vertex="1" parent="1">
          <mxGeometry x="1630" y="-630" width="120" height="60" as="geometry" />
        </mxCell>
        <mxCell id="GTG6F6J4O82Cw8e9boyh-184" value="" style="edgeStyle=orthogonalEdgeStyle;rounded=0;orthogonalLoop=1;jettySize=auto;html=1;" edge="1" parent="1" source="GTG6F6J4O82Cw8e9boyh-181" target="GTG6F6J4O82Cw8e9boyh-183">
          <mxGeometry relative="1" as="geometry" />
        </mxCell>
        <mxCell id="GTG6F6J4O82Cw8e9boyh-181" value="项目竣工验收阶段" style="whiteSpace=wrap;html=1;fillColor=none;rounded=1;" vertex="1" parent="1">
          <mxGeometry x="1430" y="-490" width="120" height="60" as="geometry" />
        </mxCell>
        <mxCell id="GTG6F6J4O82Cw8e9boyh-186" value="" style="edgeStyle=orthogonalEdgeStyle;rounded=0;orthogonalLoop=1;jettySize=auto;html=1;" edge="1" parent="1" source="GTG6F6J4O82Cw8e9boyh-183" target="GTG6F6J4O82Cw8e9boyh-185">
          <mxGeometry relative="1" as="geometry" />
        </mxCell>
        <mxCell id="GTG6F6J4O82Cw8e9boyh-183" value="验收、结算、备案" style="whiteSpace=wrap;html=1;fillColor=none;rounded=1;" vertex="1" parent="1">
          <mxGeometry x="1630" y="-490" width="120" height="60" as="geometry" />
        </mxCell>
        <mxCell id="GTG6F6J4O82Cw8e9boyh-188" value="" style="edgeStyle=orthogonalEdgeStyle;rounded=0;orthogonalLoop=1;jettySize=auto;html=1;" edge="1" parent="1" source="GTG6F6J4O82Cw8e9boyh-185" target="GTG6F6J4O82Cw8e9boyh-187">
          <mxGeometry relative="1" as="geometry" />
        </mxCell>
        <mxCell id="GTG6F6J4O82Cw8e9boyh-185" value="资料整理归档" style="whiteSpace=wrap;html=1;fillColor=none;rounded=1;" vertex="1" parent="1">
          <mxGeometry x="1830" y="-490" width="120" height="60" as="geometry" />
        </mxCell>
        <mxCell id="GTG6F6J4O82Cw8e9boyh-187" value="产权登记、物业管理" style="whiteSpace=wrap;html=1;fillColor=none;rounded=1;" vertex="1" parent="1">
          <mxGeometry x="1830" y="-380" width="120" height="60" as="geometry" />
        </mxCell>
        <mxCell id="GTG6F6J4O82Cw8e9boyh-191" value="" style="edgeStyle=orthogonalEdgeStyle;rounded=0;orthogonalLoop=1;jettySize=auto;html=1;" edge="1" parent="1" source="GTG6F6J4O82Cw8e9boyh-189" target="GTG6F6J4O82Cw8e9boyh-190">
          <mxGeometry relative="1" as="geometry" />
        </mxCell>
        <mxCell id="GTG6F6J4O82Cw8e9boyh-189" value="房地产开发" style="rounded=1;whiteSpace=wrap;html=1;fillColor=none;" vertex="1" parent="1">
          <mxGeometry x="1230" y="-290" width="120" height="60" as="geometry" />
        </mxCell>
        <mxCell id="GTG6F6J4O82Cw8e9boyh-193" value="" style="edgeStyle=orthogonalEdgeStyle;rounded=0;orthogonalLoop=1;jettySize=auto;html=1;" edge="1" parent="1" source="GTG6F6J4O82Cw8e9boyh-190" target="GTG6F6J4O82Cw8e9boyh-192">
          <mxGeometry relative="1" as="geometry" />
        </mxCell>
        <mxCell id="GTG6F6J4O82Cw8e9boyh-215" value="" style="edgeStyle=orthogonalEdgeStyle;rounded=0;orthogonalLoop=1;jettySize=auto;html=1;" edge="1" parent="1" source="GTG6F6J4O82Cw8e9boyh-190" target="GTG6F6J4O82Cw8e9boyh-214">
          <mxGeometry relative="1" as="geometry" />
        </mxCell>
        <mxCell id="GTG6F6J4O82Cw8e9boyh-190" value="土地获取阶段" style="whiteSpace=wrap;html=1;fillColor=none;rounded=1;" vertex="1" parent="1">
          <mxGeometry x="1441" y="-290" width="120" height="60" as="geometry" />
        </mxCell>
        <mxCell id="GTG6F6J4O82Cw8e9boyh-195" value="" style="edgeStyle=orthogonalEdgeStyle;rounded=0;orthogonalLoop=1;jettySize=auto;html=1;" edge="1" parent="1" source="GTG6F6J4O82Cw8e9boyh-192" target="GTG6F6J4O82Cw8e9boyh-194">
          <mxGeometry relative="1" as="geometry" />
        </mxCell>
        <mxCell id="GTG6F6J4O82Cw8e9boyh-192" value="土地信息收集" style="whiteSpace=wrap;html=1;fillColor=none;rounded=1;" vertex="1" parent="1">
          <mxGeometry x="1641" y="-290" width="120" height="60" as="geometry" />
        </mxCell>
        <mxCell id="GTG6F6J4O82Cw8e9boyh-197" value="" style="edgeStyle=orthogonalEdgeStyle;rounded=0;orthogonalLoop=1;jettySize=auto;html=1;" edge="1" parent="1" source="GTG6F6J4O82Cw8e9boyh-194" target="GTG6F6J4O82Cw8e9boyh-196">
          <mxGeometry relative="1" as="geometry" />
        </mxCell>
        <mxCell id="GTG6F6J4O82Cw8e9boyh-194" value="土地价值初判" style="whiteSpace=wrap;html=1;fillColor=none;rounded=1;" vertex="1" parent="1">
          <mxGeometry x="1841" y="-290" width="120" height="60" as="geometry" />
        </mxCell>
        <mxCell id="GTG6F6J4O82Cw8e9boyh-203" value="" style="edgeStyle=orthogonalEdgeStyle;rounded=0;orthogonalLoop=1;jettySize=auto;html=1;" edge="1" parent="1" source="GTG6F6J4O82Cw8e9boyh-196" target="GTG6F6J4O82Cw8e9boyh-202">
          <mxGeometry relative="1" as="geometry" />
        </mxCell>
        <mxCell id="GTG6F6J4O82Cw8e9boyh-196" value="土地价值深判" style="whiteSpace=wrap;html=1;fillColor=none;rounded=1;" vertex="1" parent="1">
          <mxGeometry x="1840" y="-180" width="120" height="60" as="geometry" />
        </mxCell>
        <mxCell id="GTG6F6J4O82Cw8e9boyh-205" value="" style="edgeStyle=orthogonalEdgeStyle;rounded=0;orthogonalLoop=1;jettySize=auto;html=1;" edge="1" parent="1" source="GTG6F6J4O82Cw8e9boyh-202" target="GTG6F6J4O82Cw8e9boyh-204">
          <mxGeometry relative="1" as="geometry" />
        </mxCell>
        <mxCell id="GTG6F6J4O82Cw8e9boyh-202" value="寻找合作资金" style="whiteSpace=wrap;html=1;fillColor=none;rounded=1;" vertex="1" parent="1">
          <mxGeometry x="1640" y="-180" width="120" height="60" as="geometry" />
        </mxCell>
        <mxCell id="GTG6F6J4O82Cw8e9boyh-207" value="" style="edgeStyle=orthogonalEdgeStyle;rounded=0;orthogonalLoop=1;jettySize=auto;html=1;" edge="1" parent="1" source="GTG6F6J4O82Cw8e9boyh-204" target="GTG6F6J4O82Cw8e9boyh-206">
          <mxGeometry relative="1" as="geometry" />
        </mxCell>
        <mxCell id="GTG6F6J4O82Cw8e9boyh-204" value="投标摘牌" style="whiteSpace=wrap;html=1;fillColor=none;rounded=1;" vertex="1" parent="1">
          <mxGeometry x="1640" y="-60" width="120" height="60" as="geometry" />
        </mxCell>
        <mxCell id="GTG6F6J4O82Cw8e9boyh-209" value="" style="edgeStyle=orthogonalEdgeStyle;rounded=0;orthogonalLoop=1;jettySize=auto;html=1;" edge="1" parent="1" source="GTG6F6J4O82Cw8e9boyh-206" target="GTG6F6J4O82Cw8e9boyh-208">
          <mxGeometry relative="1" as="geometry" />
        </mxCell>
        <mxCell id="GTG6F6J4O82Cw8e9boyh-206" value="签订土地出让合同" style="whiteSpace=wrap;html=1;fillColor=none;rounded=1;" vertex="1" parent="1">
          <mxGeometry x="1840" y="-60" width="120" height="60" as="geometry" />
        </mxCell>
        <mxCell id="GTG6F6J4O82Cw8e9boyh-211" value="" style="edgeStyle=orthogonalEdgeStyle;rounded=0;orthogonalLoop=1;jettySize=auto;html=1;" edge="1" parent="1" source="GTG6F6J4O82Cw8e9boyh-208" target="GTG6F6J4O82Cw8e9boyh-210">
          <mxGeometry relative="1" as="geometry" />
        </mxCell>
        <mxCell id="GTG6F6J4O82Cw8e9boyh-208" value="用地规划许可证" style="whiteSpace=wrap;html=1;fillColor=#FF9999;rounded=1;" vertex="1" parent="1">
          <mxGeometry x="1840" y="40" width="120" height="60" as="geometry" />
        </mxCell>
        <mxCell id="GTG6F6J4O82Cw8e9boyh-213" value="" style="edgeStyle=orthogonalEdgeStyle;rounded=0;orthogonalLoop=1;jettySize=auto;html=1;" edge="1" parent="1" source="GTG6F6J4O82Cw8e9boyh-210" target="GTG6F6J4O82Cw8e9boyh-212">
          <mxGeometry relative="1" as="geometry" />
        </mxCell>
        <mxCell id="GTG6F6J4O82Cw8e9boyh-210" value="土地确权" style="whiteSpace=wrap;html=1;fillColor=none;rounded=1;" vertex="1" parent="1">
          <mxGeometry x="1640" y="40" width="120" height="60" as="geometry" />
        </mxCell>
        <mxCell id="GTG6F6J4O82Cw8e9boyh-212" value="办理土地证" style="whiteSpace=wrap;html=1;fillColor=#FF9999;rounded=1;" vertex="1" parent="1">
          <mxGeometry x="1640" y="150" width="120" height="60" as="geometry" />
        </mxCell>
        <mxCell id="GTG6F6J4O82Cw8e9boyh-217" value="" style="edgeStyle=orthogonalEdgeStyle;rounded=0;orthogonalLoop=1;jettySize=auto;html=1;" edge="1" parent="1" source="GTG6F6J4O82Cw8e9boyh-214" target="GTG6F6J4O82Cw8e9boyh-216">
          <mxGeometry relative="1" as="geometry" />
        </mxCell>
        <mxCell id="GTG6F6J4O82Cw8e9boyh-229" value="" style="edgeStyle=orthogonalEdgeStyle;rounded=0;orthogonalLoop=1;jettySize=auto;html=1;" edge="1" parent="1" source="GTG6F6J4O82Cw8e9boyh-214" target="GTG6F6J4O82Cw8e9boyh-228">
          <mxGeometry relative="1" as="geometry" />
        </mxCell>
        <mxCell id="GTG6F6J4O82Cw8e9boyh-214" value="规划设计阶段" style="whiteSpace=wrap;html=1;fillColor=none;rounded=1;" vertex="1" parent="1">
          <mxGeometry x="1441" y="260" width="120" height="60" as="geometry" />
        </mxCell>
        <mxCell id="GTG6F6J4O82Cw8e9boyh-219" value="" style="edgeStyle=orthogonalEdgeStyle;rounded=0;orthogonalLoop=1;jettySize=auto;html=1;" edge="1" parent="1" source="GTG6F6J4O82Cw8e9boyh-216" target="GTG6F6J4O82Cw8e9boyh-218">
          <mxGeometry relative="1" as="geometry" />
        </mxCell>
        <mxCell id="GTG6F6J4O82Cw8e9boyh-216" value="区域市场调研" style="whiteSpace=wrap;html=1;fillColor=none;rounded=1;" vertex="1" parent="1">
          <mxGeometry x="1641" y="260" width="120" height="60" as="geometry" />
        </mxCell>
        <mxCell id="GTG6F6J4O82Cw8e9boyh-221" value="" style="edgeStyle=orthogonalEdgeStyle;rounded=0;orthogonalLoop=1;jettySize=auto;html=1;" edge="1" parent="1" source="GTG6F6J4O82Cw8e9boyh-218" target="GTG6F6J4O82Cw8e9boyh-220">
          <mxGeometry relative="1" as="geometry" />
        </mxCell>
        <mxCell id="GTG6F6J4O82Cw8e9boyh-218" value="项目定位" style="whiteSpace=wrap;html=1;fillColor=none;rounded=1;" vertex="1" parent="1">
          <mxGeometry x="1841" y="260" width="120" height="60" as="geometry" />
        </mxCell>
        <mxCell id="GTG6F6J4O82Cw8e9boyh-223" value="" style="edgeStyle=orthogonalEdgeStyle;rounded=0;orthogonalLoop=1;jettySize=auto;html=1;" edge="1" parent="1" source="GTG6F6J4O82Cw8e9boyh-220" target="GTG6F6J4O82Cw8e9boyh-222">
          <mxGeometry relative="1" as="geometry" />
        </mxCell>
        <mxCell id="GTG6F6J4O82Cw8e9boyh-220" value="设计前期工作" style="whiteSpace=wrap;html=1;fillColor=none;rounded=1;" vertex="1" parent="1">
          <mxGeometry x="1841" y="370" width="120" height="60" as="geometry" />
        </mxCell>
        <mxCell id="GTG6F6J4O82Cw8e9boyh-225" value="" style="edgeStyle=orthogonalEdgeStyle;rounded=0;orthogonalLoop=1;jettySize=auto;html=1;" edge="1" parent="1" source="GTG6F6J4O82Cw8e9boyh-222" target="GTG6F6J4O82Cw8e9boyh-224">
          <mxGeometry relative="1" as="geometry" />
        </mxCell>
        <mxCell id="GTG6F6J4O82Cw8e9boyh-222" value="方案设计组织" style="whiteSpace=wrap;html=1;fillColor=none;rounded=1;" vertex="1" parent="1">
          <mxGeometry x="1641" y="370" width="120" height="60" as="geometry" />
        </mxCell>
        <mxCell id="GTG6F6J4O82Cw8e9boyh-227" value="" style="edgeStyle=orthogonalEdgeStyle;rounded=0;orthogonalLoop=1;jettySize=auto;html=1;" edge="1" parent="1" source="GTG6F6J4O82Cw8e9boyh-224" target="GTG6F6J4O82Cw8e9boyh-226">
          <mxGeometry relative="1" as="geometry" />
        </mxCell>
        <mxCell id="GTG6F6J4O82Cw8e9boyh-224" value="项目指标确认" style="whiteSpace=wrap;html=1;fillColor=none;rounded=1;" vertex="1" parent="1">
          <mxGeometry x="1640" y="490" width="120" height="60" as="geometry" />
        </mxCell>
        <mxCell id="GTG6F6J4O82Cw8e9boyh-226" value="施工图设计组织" style="whiteSpace=wrap;html=1;fillColor=none;rounded=1;" vertex="1" parent="1">
          <mxGeometry x="1840" y="490" width="120" height="60" as="geometry" />
        </mxCell>
        <mxCell id="GTG6F6J4O82Cw8e9boyh-233" value="" style="edgeStyle=orthogonalEdgeStyle;rounded=0;orthogonalLoop=1;jettySize=auto;html=1;" edge="1" parent="1" source="GTG6F6J4O82Cw8e9boyh-228" target="GTG6F6J4O82Cw8e9boyh-232">
          <mxGeometry relative="1" as="geometry" />
        </mxCell>
        <mxCell id="GTG6F6J4O82Cw8e9boyh-243" value="" style="edgeStyle=orthogonalEdgeStyle;rounded=0;orthogonalLoop=1;jettySize=auto;html=1;" edge="1" parent="1" source="GTG6F6J4O82Cw8e9boyh-228" target="GTG6F6J4O82Cw8e9boyh-242">
          <mxGeometry relative="1" as="geometry" />
        </mxCell>
        <mxCell id="GTG6F6J4O82Cw8e9boyh-228" value="施工准备阶段" style="whiteSpace=wrap;html=1;fillColor=none;rounded=1;" vertex="1" parent="1">
          <mxGeometry x="1441" y="620" width="120" height="60" as="geometry" />
        </mxCell>
        <mxCell id="GTG6F6J4O82Cw8e9boyh-235" value="" style="edgeStyle=orthogonalEdgeStyle;rounded=0;orthogonalLoop=1;jettySize=auto;html=1;" edge="1" parent="1" source="GTG6F6J4O82Cw8e9boyh-232" target="GTG6F6J4O82Cw8e9boyh-234">
          <mxGeometry relative="1" as="geometry" />
        </mxCell>
        <mxCell id="GTG6F6J4O82Cw8e9boyh-232" value="建设工程规划许可证" style="whiteSpace=wrap;html=1;fillColor=#FF9999;rounded=1;" vertex="1" parent="1">
          <mxGeometry x="1641" y="620" width="120" height="60" as="geometry" />
        </mxCell>
        <mxCell id="GTG6F6J4O82Cw8e9boyh-237" value="" style="edgeStyle=orthogonalEdgeStyle;rounded=0;orthogonalLoop=1;jettySize=auto;html=1;" edge="1" parent="1" source="GTG6F6J4O82Cw8e9boyh-234" target="GTG6F6J4O82Cw8e9boyh-236">
          <mxGeometry relative="1" as="geometry" />
        </mxCell>
        <mxCell id="GTG6F6J4O82Cw8e9boyh-234" value="现场工程放线" style="whiteSpace=wrap;html=1;fillColor=none;rounded=1;" vertex="1" parent="1">
          <mxGeometry x="1841" y="620" width="120" height="60" as="geometry" />
        </mxCell>
        <mxCell id="GTG6F6J4O82Cw8e9boyh-239" value="" style="edgeStyle=orthogonalEdgeStyle;rounded=0;orthogonalLoop=1;jettySize=auto;html=1;" edge="1" parent="1" source="GTG6F6J4O82Cw8e9boyh-236" target="GTG6F6J4O82Cw8e9boyh-238">
          <mxGeometry relative="1" as="geometry" />
        </mxCell>
        <mxCell id="GTG6F6J4O82Cw8e9boyh-236" value="施工许可证" style="whiteSpace=wrap;html=1;fillColor=#FF9999;rounded=1;" vertex="1" parent="1">
          <mxGeometry x="1841" y="740" width="120" height="60" as="geometry" />
        </mxCell>
        <mxCell id="GTG6F6J4O82Cw8e9boyh-241" value="" style="edgeStyle=orthogonalEdgeStyle;rounded=0;orthogonalLoop=1;jettySize=auto;html=1;" edge="1" parent="1" source="GTG6F6J4O82Cw8e9boyh-238" target="GTG6F6J4O82Cw8e9boyh-240">
          <mxGeometry relative="1" as="geometry" />
        </mxCell>
        <mxCell id="GTG6F6J4O82Cw8e9boyh-238" value="企业投资项目备案" style="whiteSpace=wrap;html=1;fillColor=none;rounded=1;" vertex="1" parent="1">
          <mxGeometry x="1641" y="740" width="120" height="60" as="geometry" />
        </mxCell>
        <mxCell id="GTG6F6J4O82Cw8e9boyh-240" value="开工前期工作" style="whiteSpace=wrap;html=1;fillColor=none;rounded=1;" vertex="1" parent="1">
          <mxGeometry x="1640" y="870" width="120" height="60" as="geometry" />
        </mxCell>
        <mxCell id="GTG6F6J4O82Cw8e9boyh-245" value="" style="edgeStyle=orthogonalEdgeStyle;rounded=0;orthogonalLoop=1;jettySize=auto;html=1;" edge="1" parent="1" source="GTG6F6J4O82Cw8e9boyh-242" target="GTG6F6J4O82Cw8e9boyh-244">
          <mxGeometry relative="1" as="geometry" />
        </mxCell>
        <mxCell id="GTG6F6J4O82Cw8e9boyh-253" value="" style="edgeStyle=orthogonalEdgeStyle;rounded=0;orthogonalLoop=1;jettySize=auto;html=1;" edge="1" parent="1" source="GTG6F6J4O82Cw8e9boyh-242" target="GTG6F6J4O82Cw8e9boyh-252">
          <mxGeometry relative="1" as="geometry" />
        </mxCell>
        <mxCell id="GTG6F6J4O82Cw8e9boyh-242" value="工程建设阶段" style="whiteSpace=wrap;html=1;fillColor=none;rounded=1;" vertex="1" parent="1">
          <mxGeometry x="1441" y="1020" width="120" height="60" as="geometry" />
        </mxCell>
        <mxCell id="GTG6F6J4O82Cw8e9boyh-247" value="" style="edgeStyle=orthogonalEdgeStyle;rounded=0;orthogonalLoop=1;jettySize=auto;html=1;" edge="1" parent="1" source="GTG6F6J4O82Cw8e9boyh-244" target="GTG6F6J4O82Cw8e9boyh-246">
          <mxGeometry relative="1" as="geometry" />
        </mxCell>
        <mxCell id="GTG6F6J4O82Cw8e9boyh-244" value="项目开工" style="whiteSpace=wrap;html=1;fillColor=none;rounded=1;" vertex="1" parent="1">
          <mxGeometry x="1641" y="1020" width="120" height="60" as="geometry" />
        </mxCell>
        <mxCell id="GTG6F6J4O82Cw8e9boyh-249" value="" style="edgeStyle=orthogonalEdgeStyle;rounded=0;orthogonalLoop=1;jettySize=auto;html=1;" edge="1" parent="1" source="GTG6F6J4O82Cw8e9boyh-246" target="GTG6F6J4O82Cw8e9boyh-248">
          <mxGeometry relative="1" as="geometry" />
        </mxCell>
        <mxCell id="GTG6F6J4O82Cw8e9boyh-246" value="基础施工" style="whiteSpace=wrap;html=1;fillColor=none;rounded=1;" vertex="1" parent="1">
          <mxGeometry x="1841" y="1020" width="120" height="60" as="geometry" />
        </mxCell>
        <mxCell id="GTG6F6J4O82Cw8e9boyh-251" value="" style="edgeStyle=orthogonalEdgeStyle;rounded=0;orthogonalLoop=1;jettySize=auto;html=1;" edge="1" parent="1" source="GTG6F6J4O82Cw8e9boyh-248" target="GTG6F6J4O82Cw8e9boyh-250">
          <mxGeometry relative="1" as="geometry" />
        </mxCell>
        <mxCell id="GTG6F6J4O82Cw8e9boyh-248" value="主体施工" style="whiteSpace=wrap;html=1;fillColor=none;rounded=1;" vertex="1" parent="1">
          <mxGeometry x="1841" y="1140" width="120" height="60" as="geometry" />
        </mxCell>
        <mxCell id="GTG6F6J4O82Cw8e9boyh-250" value="变更签证" style="whiteSpace=wrap;html=1;fillColor=none;rounded=1;" vertex="1" parent="1">
          <mxGeometry x="1641" y="1140" width="120" height="60" as="geometry" />
        </mxCell>
        <mxCell id="GTG6F6J4O82Cw8e9boyh-255" value="" style="edgeStyle=orthogonalEdgeStyle;rounded=0;orthogonalLoop=1;jettySize=auto;html=1;" edge="1" parent="1" source="GTG6F6J4O82Cw8e9boyh-252" target="GTG6F6J4O82Cw8e9boyh-254">
          <mxGeometry relative="1" as="geometry" />
        </mxCell>
        <mxCell id="GTG6F6J4O82Cw8e9boyh-271" value="" style="edgeStyle=orthogonalEdgeStyle;rounded=0;orthogonalLoop=1;jettySize=auto;html=1;" edge="1" parent="1" source="GTG6F6J4O82Cw8e9boyh-252" target="GTG6F6J4O82Cw8e9boyh-270">
          <mxGeometry relative="1" as="geometry" />
        </mxCell>
        <mxCell id="GTG6F6J4O82Cw8e9boyh-252" value="项目销售阶段" style="whiteSpace=wrap;html=1;fillColor=none;rounded=1;" vertex="1" parent="1">
          <mxGeometry x="1441" y="1260" width="120" height="60" as="geometry" />
        </mxCell>
        <mxCell id="GTG6F6J4O82Cw8e9boyh-257" value="" style="edgeStyle=orthogonalEdgeStyle;rounded=0;orthogonalLoop=1;jettySize=auto;html=1;" edge="1" parent="1" source="GTG6F6J4O82Cw8e9boyh-254" target="GTG6F6J4O82Cw8e9boyh-256">
          <mxGeometry relative="1" as="geometry" />
        </mxCell>
        <mxCell id="GTG6F6J4O82Cw8e9boyh-254" value="销售许可证" style="whiteSpace=wrap;html=1;fillColor=#FF9999;rounded=1;" vertex="1" parent="1">
          <mxGeometry x="1641" y="1260" width="120" height="60" as="geometry" />
        </mxCell>
        <mxCell id="GTG6F6J4O82Cw8e9boyh-259" value="" style="edgeStyle=orthogonalEdgeStyle;rounded=0;orthogonalLoop=1;jettySize=auto;html=1;" edge="1" parent="1" source="GTG6F6J4O82Cw8e9boyh-256" target="GTG6F6J4O82Cw8e9boyh-258">
          <mxGeometry relative="1" as="geometry" />
        </mxCell>
        <mxCell id="GTG6F6J4O82Cw8e9boyh-256" value="项目亮相前准备" style="whiteSpace=wrap;html=1;fillColor=none;rounded=1;" vertex="1" parent="1">
          <mxGeometry x="1841" y="1260" width="120" height="60" as="geometry" />
        </mxCell>
        <mxCell id="GTG6F6J4O82Cw8e9boyh-261" value="" style="edgeStyle=orthogonalEdgeStyle;rounded=0;orthogonalLoop=1;jettySize=auto;html=1;" edge="1" parent="1" source="GTG6F6J4O82Cw8e9boyh-258" target="GTG6F6J4O82Cw8e9boyh-260">
          <mxGeometry relative="1" as="geometry" />
        </mxCell>
        <mxCell id="GTG6F6J4O82Cw8e9boyh-258" value="项目亮相" style="whiteSpace=wrap;html=1;fillColor=none;rounded=1;" vertex="1" parent="1">
          <mxGeometry x="1841" y="1380" width="120" height="60" as="geometry" />
        </mxCell>
        <mxCell id="GTG6F6J4O82Cw8e9boyh-263" value="" style="edgeStyle=orthogonalEdgeStyle;rounded=0;orthogonalLoop=1;jettySize=auto;html=1;" edge="1" parent="1" source="GTG6F6J4O82Cw8e9boyh-260" target="GTG6F6J4O82Cw8e9boyh-262">
          <mxGeometry relative="1" as="geometry" />
        </mxCell>
        <mxCell id="GTG6F6J4O82Cw8e9boyh-260" value="项目开盘前准备" style="whiteSpace=wrap;html=1;fillColor=none;rounded=1;" vertex="1" parent="1">
          <mxGeometry x="1640" y="1380" width="120" height="60" as="geometry" />
        </mxCell>
        <mxCell id="GTG6F6J4O82Cw8e9boyh-267" value="" style="edgeStyle=orthogonalEdgeStyle;rounded=0;orthogonalLoop=1;jettySize=auto;html=1;" edge="1" parent="1" source="GTG6F6J4O82Cw8e9boyh-262" target="GTG6F6J4O82Cw8e9boyh-266">
          <mxGeometry relative="1" as="geometry" />
        </mxCell>
        <mxCell id="GTG6F6J4O82Cw8e9boyh-262" value="项目开盘" style="whiteSpace=wrap;html=1;fillColor=none;rounded=1;" vertex="1" parent="1">
          <mxGeometry x="1640" y="1490" width="120" height="60" as="geometry" />
        </mxCell>
        <mxCell id="GTG6F6J4O82Cw8e9boyh-269" value="" style="edgeStyle=orthogonalEdgeStyle;rounded=0;orthogonalLoop=1;jettySize=auto;html=1;" edge="1" parent="1" source="GTG6F6J4O82Cw8e9boyh-266" target="GTG6F6J4O82Cw8e9boyh-268">
          <mxGeometry relative="1" as="geometry" />
        </mxCell>
        <mxCell id="GTG6F6J4O82Cw8e9boyh-266" value="日常销售" style="whiteSpace=wrap;html=1;fillColor=none;rounded=1;" vertex="1" parent="1">
          <mxGeometry x="1840" y="1490" width="120" height="60" as="geometry" />
        </mxCell>
        <mxCell id="GTG6F6J4O82Cw8e9boyh-268" value="销售清盘" style="whiteSpace=wrap;html=1;fillColor=none;rounded=1;" vertex="1" parent="1">
          <mxGeometry x="1840" y="1610" width="120" height="60" as="geometry" />
        </mxCell>
        <mxCell id="GTG6F6J4O82Cw8e9boyh-273" value="" style="edgeStyle=orthogonalEdgeStyle;rounded=0;orthogonalLoop=1;jettySize=auto;html=1;" edge="1" parent="1" source="GTG6F6J4O82Cw8e9boyh-270" target="GTG6F6J4O82Cw8e9boyh-272">
          <mxGeometry relative="1" as="geometry" />
        </mxCell>
        <mxCell id="GTG6F6J4O82Cw8e9boyh-307" value="" style="edgeStyle=orthogonalEdgeStyle;rounded=0;orthogonalLoop=1;jettySize=auto;html=1;" edge="1" parent="1" source="GTG6F6J4O82Cw8e9boyh-270" target="GTG6F6J4O82Cw8e9boyh-306">
          <mxGeometry relative="1" as="geometry" />
        </mxCell>
        <mxCell id="GTG6F6J4O82Cw8e9boyh-270" value="工程建设阶段" style="whiteSpace=wrap;html=1;fillColor=none;rounded=1;" vertex="1" parent="1">
          <mxGeometry x="1441" y="1724" width="120" height="60" as="geometry" />
        </mxCell>
        <mxCell id="GTG6F6J4O82Cw8e9boyh-275" value="" style="edgeStyle=orthogonalEdgeStyle;rounded=0;orthogonalLoop=1;jettySize=auto;html=1;" edge="1" parent="1" source="GTG6F6J4O82Cw8e9boyh-272" target="GTG6F6J4O82Cw8e9boyh-274">
          <mxGeometry relative="1" as="geometry" />
        </mxCell>
        <mxCell id="GTG6F6J4O82Cw8e9boyh-272" value="&amp;nbsp;外檐装修材料确定" style="whiteSpace=wrap;html=1;fillColor=none;rounded=1;" vertex="1" parent="1">
          <mxGeometry x="1641" y="1724" width="120" height="60" as="geometry" />
        </mxCell>
        <mxCell id="GTG6F6J4O82Cw8e9boyh-277" value="" style="edgeStyle=orthogonalEdgeStyle;rounded=0;orthogonalLoop=1;jettySize=auto;html=1;" edge="1" parent="1" source="GTG6F6J4O82Cw8e9boyh-274" target="GTG6F6J4O82Cw8e9boyh-276">
          <mxGeometry relative="1" as="geometry" />
        </mxCell>
        <mxCell id="GTG6F6J4O82Cw8e9boyh-274" value="甲供、甲分包材料的招标" style="whiteSpace=wrap;html=1;fillColor=none;rounded=1;" vertex="1" parent="1">
          <mxGeometry x="1841" y="1724" width="120" height="60" as="geometry" />
        </mxCell>
        <mxCell id="GTG6F6J4O82Cw8e9boyh-279" value="" style="edgeStyle=orthogonalEdgeStyle;rounded=0;orthogonalLoop=1;jettySize=auto;html=1;" edge="1" parent="1" source="GTG6F6J4O82Cw8e9boyh-276" target="GTG6F6J4O82Cw8e9boyh-278">
          <mxGeometry relative="1" as="geometry" />
        </mxCell>
        <mxCell id="GTG6F6J4O82Cw8e9boyh-276" value="内外檐装修" style="whiteSpace=wrap;html=1;fillColor=none;rounded=1;" vertex="1" parent="1">
          <mxGeometry x="1841" y="1840" width="120" height="60" as="geometry" />
        </mxCell>
        <mxCell id="GTG6F6J4O82Cw8e9boyh-281" value="" style="edgeStyle=orthogonalEdgeStyle;rounded=0;orthogonalLoop=1;jettySize=auto;html=1;" edge="1" parent="1" source="GTG6F6J4O82Cw8e9boyh-278" target="GTG6F6J4O82Cw8e9boyh-280">
          <mxGeometry relative="1" as="geometry" />
        </mxCell>
        <mxCell id="GTG6F6J4O82Cw8e9boyh-278" value="水、暖、电安装" style="whiteSpace=wrap;html=1;fillColor=none;rounded=1;" vertex="1" parent="1">
          <mxGeometry x="1640" y="1840" width="120" height="60" as="geometry" />
        </mxCell>
        <mxCell id="GTG6F6J4O82Cw8e9boyh-283" value="" style="edgeStyle=orthogonalEdgeStyle;rounded=0;orthogonalLoop=1;jettySize=auto;html=1;" edge="1" parent="1" source="GTG6F6J4O82Cw8e9boyh-280" target="GTG6F6J4O82Cw8e9boyh-282">
          <mxGeometry relative="1" as="geometry" />
        </mxCell>
        <mxCell id="GTG6F6J4O82Cw8e9boyh-280" value="智能化" style="whiteSpace=wrap;html=1;fillColor=none;rounded=1;" vertex="1" parent="1">
          <mxGeometry x="1640" y="1960" width="120" height="60" as="geometry" />
        </mxCell>
        <mxCell id="GTG6F6J4O82Cw8e9boyh-285" value="" style="edgeStyle=orthogonalEdgeStyle;rounded=0;orthogonalLoop=1;jettySize=auto;html=1;" edge="1" parent="1" source="GTG6F6J4O82Cw8e9boyh-282" target="GTG6F6J4O82Cw8e9boyh-284">
          <mxGeometry relative="1" as="geometry" />
        </mxCell>
        <mxCell id="GTG6F6J4O82Cw8e9boyh-282" value="通风与空调" style="whiteSpace=wrap;html=1;fillColor=none;rounded=1;" vertex="1" parent="1">
          <mxGeometry x="1840" y="1960" width="120" height="60" as="geometry" />
        </mxCell>
        <mxCell id="GTG6F6J4O82Cw8e9boyh-287" value="" style="edgeStyle=orthogonalEdgeStyle;rounded=0;orthogonalLoop=1;jettySize=auto;html=1;" edge="1" parent="1" source="GTG6F6J4O82Cw8e9boyh-284" target="GTG6F6J4O82Cw8e9boyh-286">
          <mxGeometry relative="1" as="geometry" />
        </mxCell>
        <mxCell id="GTG6F6J4O82Cw8e9boyh-284" value="电梯安装" style="whiteSpace=wrap;html=1;fillColor=none;rounded=1;" vertex="1" parent="1">
          <mxGeometry x="1840" y="2080" width="120" height="60" as="geometry" />
        </mxCell>
        <mxCell id="GTG6F6J4O82Cw8e9boyh-289" value="" style="edgeStyle=orthogonalEdgeStyle;rounded=0;orthogonalLoop=1;jettySize=auto;html=1;" edge="1" parent="1" source="GTG6F6J4O82Cw8e9boyh-286" target="GTG6F6J4O82Cw8e9boyh-288">
          <mxGeometry relative="1" as="geometry" />
        </mxCell>
        <mxCell id="GTG6F6J4O82Cw8e9boyh-286" value="毛坯房竣工验收备案" style="whiteSpace=wrap;html=1;fillColor=none;rounded=1;" vertex="1" parent="1">
          <mxGeometry x="1640" y="2080" width="120" height="60" as="geometry" />
        </mxCell>
        <mxCell id="GTG6F6J4O82Cw8e9boyh-291" value="" style="edgeStyle=orthogonalEdgeStyle;rounded=0;orthogonalLoop=1;jettySize=auto;html=1;" edge="1" parent="1" source="GTG6F6J4O82Cw8e9boyh-288" target="GTG6F6J4O82Cw8e9boyh-290">
          <mxGeometry relative="1" as="geometry" />
        </mxCell>
        <mxCell id="GTG6F6J4O82Cw8e9boyh-288" value="毛坯房竣工验收" style="whiteSpace=wrap;html=1;fillColor=none;rounded=1;" vertex="1" parent="1">
          <mxGeometry x="1640" y="2200" width="120" height="60" as="geometry" />
        </mxCell>
        <mxCell id="GTG6F6J4O82Cw8e9boyh-293" value="" style="edgeStyle=orthogonalEdgeStyle;rounded=0;orthogonalLoop=1;jettySize=auto;html=1;" edge="1" parent="1" source="GTG6F6J4O82Cw8e9boyh-290" target="GTG6F6J4O82Cw8e9boyh-292">
          <mxGeometry relative="1" as="geometry" />
        </mxCell>
        <mxCell id="GTG6F6J4O82Cw8e9boyh-290" value="成品房装修" style="whiteSpace=wrap;html=1;fillColor=none;rounded=1;" vertex="1" parent="1">
          <mxGeometry x="1840" y="2200" width="120" height="60" as="geometry" />
        </mxCell>
        <mxCell id="GTG6F6J4O82Cw8e9boyh-295" value="" style="edgeStyle=orthogonalEdgeStyle;rounded=0;orthogonalLoop=1;jettySize=auto;html=1;" edge="1" parent="1" source="GTG6F6J4O82Cw8e9boyh-292" target="GTG6F6J4O82Cw8e9boyh-294">
          <mxGeometry relative="1" as="geometry" />
        </mxCell>
        <mxCell id="GTG6F6J4O82Cw8e9boyh-292" value="成品房验收备案" style="whiteSpace=wrap;html=1;fillColor=none;rounded=1;" vertex="1" parent="1">
          <mxGeometry x="1840" y="2310" width="120" height="60" as="geometry" />
        </mxCell>
        <mxCell id="GTG6F6J4O82Cw8e9boyh-297" value="" style="edgeStyle=orthogonalEdgeStyle;rounded=0;orthogonalLoop=1;jettySize=auto;html=1;" edge="1" parent="1" source="GTG6F6J4O82Cw8e9boyh-294" target="GTG6F6J4O82Cw8e9boyh-296">
          <mxGeometry relative="1" as="geometry" />
        </mxCell>
        <mxCell id="GTG6F6J4O82Cw8e9boyh-294" value="成品房竣工结算" style="whiteSpace=wrap;html=1;fillColor=none;rounded=1;" vertex="1" parent="1">
          <mxGeometry x="1640" y="2310" width="120" height="60" as="geometry" />
        </mxCell>
        <mxCell id="GTG6F6J4O82Cw8e9boyh-299" value="" style="edgeStyle=orthogonalEdgeStyle;rounded=0;orthogonalLoop=1;jettySize=auto;html=1;" edge="1" parent="1" source="GTG6F6J4O82Cw8e9boyh-296" target="GTG6F6J4O82Cw8e9boyh-298">
          <mxGeometry relative="1" as="geometry" />
        </mxCell>
        <mxCell id="GTG6F6J4O82Cw8e9boyh-296" value="配套手续及施工" style="whiteSpace=wrap;html=1;fillColor=none;rounded=1;" vertex="1" parent="1">
          <mxGeometry x="1640" y="2430" width="120" height="60" as="geometry" />
        </mxCell>
        <mxCell id="GTG6F6J4O82Cw8e9boyh-301" value="" style="edgeStyle=orthogonalEdgeStyle;rounded=0;orthogonalLoop=1;jettySize=auto;html=1;" edge="1" parent="1" source="GTG6F6J4O82Cw8e9boyh-298" target="GTG6F6J4O82Cw8e9boyh-300">
          <mxGeometry relative="1" as="geometry" />
        </mxCell>
        <mxCell id="GTG6F6J4O82Cw8e9boyh-298" value="配套施工" style="whiteSpace=wrap;html=1;fillColor=none;rounded=1;" vertex="1" parent="1">
          <mxGeometry x="1840" y="2430" width="120" height="60" as="geometry" />
        </mxCell>
        <mxCell id="GTG6F6J4O82Cw8e9boyh-303" value="" style="edgeStyle=orthogonalEdgeStyle;rounded=0;orthogonalLoop=1;jettySize=auto;html=1;" edge="1" parent="1" source="GTG6F6J4O82Cw8e9boyh-300" target="GTG6F6J4O82Cw8e9boyh-302">
          <mxGeometry relative="1" as="geometry" />
        </mxCell>
        <mxCell id="GTG6F6J4O82Cw8e9boyh-300" value="环境施工" style="whiteSpace=wrap;html=1;fillColor=none;rounded=1;" vertex="1" parent="1">
          <mxGeometry x="1840" y="2550" width="120" height="60" as="geometry" />
        </mxCell>
        <mxCell id="GTG6F6J4O82Cw8e9boyh-305" value="" style="edgeStyle=orthogonalEdgeStyle;rounded=0;orthogonalLoop=1;jettySize=auto;html=1;" edge="1" parent="1" source="GTG6F6J4O82Cw8e9boyh-302" target="GTG6F6J4O82Cw8e9boyh-304">
          <mxGeometry relative="1" as="geometry" />
        </mxCell>
        <mxCell id="GTG6F6J4O82Cw8e9boyh-302" value="竣工结算" style="whiteSpace=wrap;html=1;fillColor=none;rounded=1;" vertex="1" parent="1">
          <mxGeometry x="1640" y="2550" width="120" height="60" as="geometry" />
        </mxCell>
        <mxCell id="GTG6F6J4O82Cw8e9boyh-304" value="结算稽核" style="whiteSpace=wrap;html=1;fillColor=none;rounded=1;" vertex="1" parent="1">
          <mxGeometry x="1640" y="2690" width="120" height="60" as="geometry" />
        </mxCell>
        <mxCell id="GTG6F6J4O82Cw8e9boyh-309" value="" style="edgeStyle=orthogonalEdgeStyle;rounded=0;orthogonalLoop=1;jettySize=auto;html=1;" edge="1" parent="1" source="GTG6F6J4O82Cw8e9boyh-306" target="GTG6F6J4O82Cw8e9boyh-308">
          <mxGeometry relative="1" as="geometry" />
        </mxCell>
        <mxCell id="GTG6F6J4O82Cw8e9boyh-323" value="" style="edgeStyle=orthogonalEdgeStyle;rounded=0;orthogonalLoop=1;jettySize=auto;html=1;" edge="1" parent="1" source="GTG6F6J4O82Cw8e9boyh-306" target="GTG6F6J4O82Cw8e9boyh-322">
          <mxGeometry relative="1" as="geometry" />
        </mxCell>
        <mxCell id="GTG6F6J4O82Cw8e9boyh-306" value="竣工入住阶段" style="whiteSpace=wrap;html=1;fillColor=none;rounded=1;" vertex="1" parent="1">
          <mxGeometry x="1441" y="2810" width="120" height="60" as="geometry" />
        </mxCell>
        <mxCell id="GTG6F6J4O82Cw8e9boyh-311" value="" style="edgeStyle=orthogonalEdgeStyle;rounded=0;orthogonalLoop=1;jettySize=auto;html=1;" edge="1" parent="1" source="GTG6F6J4O82Cw8e9boyh-308" target="GTG6F6J4O82Cw8e9boyh-310">
          <mxGeometry relative="1" as="geometry" />
        </mxCell>
        <mxCell id="GTG6F6J4O82Cw8e9boyh-308" value="室内空气检测" style="whiteSpace=wrap;html=1;fillColor=none;rounded=1;" vertex="1" parent="1">
          <mxGeometry x="1641" y="2810" width="120" height="60" as="geometry" />
        </mxCell>
        <mxCell id="GTG6F6J4O82Cw8e9boyh-313" value="" style="edgeStyle=orthogonalEdgeStyle;rounded=0;orthogonalLoop=1;jettySize=auto;html=1;" edge="1" parent="1" source="GTG6F6J4O82Cw8e9boyh-310" target="GTG6F6J4O82Cw8e9boyh-312">
          <mxGeometry relative="1" as="geometry" />
        </mxCell>
        <mxCell id="GTG6F6J4O82Cw8e9boyh-310" value="住宅准入证" style="whiteSpace=wrap;html=1;fillColor=#FF9999;rounded=1;" vertex="1" parent="1">
          <mxGeometry x="1841" y="2810" width="120" height="60" as="geometry" />
        </mxCell>
        <mxCell id="GTG6F6J4O82Cw8e9boyh-315" value="" style="edgeStyle=orthogonalEdgeStyle;rounded=0;orthogonalLoop=1;jettySize=auto;html=1;" edge="1" parent="1" source="GTG6F6J4O82Cw8e9boyh-312" target="GTG6F6J4O82Cw8e9boyh-314">
          <mxGeometry relative="1" as="geometry" />
        </mxCell>
        <mxCell id="GTG6F6J4O82Cw8e9boyh-312" value="入住准备" style="whiteSpace=wrap;html=1;fillColor=none;rounded=1;" vertex="1" parent="1">
          <mxGeometry x="1841" y="2923" width="120" height="60" as="geometry" />
        </mxCell>
        <mxCell id="GTG6F6J4O82Cw8e9boyh-317" value="" style="edgeStyle=orthogonalEdgeStyle;rounded=0;orthogonalLoop=1;jettySize=auto;html=1;" edge="1" parent="1" source="GTG6F6J4O82Cw8e9boyh-314" target="GTG6F6J4O82Cw8e9boyh-316">
          <mxGeometry relative="1" as="geometry" />
        </mxCell>
        <mxCell id="GTG6F6J4O82Cw8e9boyh-314" value="楼牌标识" style="whiteSpace=wrap;html=1;fillColor=none;rounded=1;" vertex="1" parent="1">
          <mxGeometry x="1641" y="2923" width="120" height="60" as="geometry" />
        </mxCell>
        <mxCell id="GTG6F6J4O82Cw8e9boyh-319" value="" style="edgeStyle=orthogonalEdgeStyle;rounded=0;orthogonalLoop=1;jettySize=auto;html=1;" edge="1" parent="1" source="GTG6F6J4O82Cw8e9boyh-316" target="GTG6F6J4O82Cw8e9boyh-318">
          <mxGeometry relative="1" as="geometry" />
        </mxCell>
        <mxCell id="GTG6F6J4O82Cw8e9boyh-316" value="物业收房" style="whiteSpace=wrap;html=1;fillColor=none;rounded=1;" vertex="1" parent="1">
          <mxGeometry x="1640" y="3040" width="120" height="60" as="geometry" />
        </mxCell>
        <mxCell id="GTG6F6J4O82Cw8e9boyh-321" value="" style="edgeStyle=orthogonalEdgeStyle;rounded=0;orthogonalLoop=1;jettySize=auto;html=1;" edge="1" parent="1" source="GTG6F6J4O82Cw8e9boyh-318" target="GTG6F6J4O82Cw8e9boyh-320">
          <mxGeometry relative="1" as="geometry" />
        </mxCell>
        <mxCell id="GTG6F6J4O82Cw8e9boyh-318" value="办理入住手续" style="whiteSpace=wrap;html=1;fillColor=none;rounded=1;" vertex="1" parent="1">
          <mxGeometry x="1840" y="3040" width="120" height="60" as="geometry" />
        </mxCell>
        <mxCell id="GTG6F6J4O82Cw8e9boyh-320" value="售后维修" style="whiteSpace=wrap;html=1;fillColor=none;rounded=1;" vertex="1" parent="1">
          <mxGeometry x="1840" y="3180" width="120" height="60" as="geometry" />
        </mxCell>
        <mxCell id="GTG6F6J4O82Cw8e9boyh-325" value="" style="edgeStyle=orthogonalEdgeStyle;rounded=0;orthogonalLoop=1;jettySize=auto;html=1;" edge="1" parent="1" source="GTG6F6J4O82Cw8e9boyh-322" target="GTG6F6J4O82Cw8e9boyh-324">
          <mxGeometry relative="1" as="geometry" />
        </mxCell>
        <mxCell id="GTG6F6J4O82Cw8e9boyh-322" value="售后及移交" style="whiteSpace=wrap;html=1;fillColor=none;rounded=1;" vertex="1" parent="1">
          <mxGeometry x="1441" y="3310" width="120" height="60" as="geometry" />
        </mxCell>
        <mxCell id="GTG6F6J4O82Cw8e9boyh-327" value="" style="edgeStyle=orthogonalEdgeStyle;rounded=0;orthogonalLoop=1;jettySize=auto;html=1;" edge="1" parent="1" source="GTG6F6J4O82Cw8e9boyh-324" target="GTG6F6J4O82Cw8e9boyh-326">
          <mxGeometry relative="1" as="geometry" />
        </mxCell>
        <mxCell id="GTG6F6J4O82Cw8e9boyh-324" value="投诉处理" style="whiteSpace=wrap;html=1;fillColor=none;rounded=1;" vertex="1" parent="1">
          <mxGeometry x="1641" y="3310" width="120" height="60" as="geometry" />
        </mxCell>
        <mxCell id="GTG6F6J4O82Cw8e9boyh-329" value="" style="edgeStyle=orthogonalEdgeStyle;rounded=0;orthogonalLoop=1;jettySize=auto;html=1;" edge="1" parent="1" source="GTG6F6J4O82Cw8e9boyh-326" target="GTG6F6J4O82Cw8e9boyh-328">
          <mxGeometry relative="1" as="geometry" />
        </mxCell>
        <mxCell id="GTG6F6J4O82Cw8e9boyh-326" value="装修管理" style="whiteSpace=wrap;html=1;fillColor=none;rounded=1;" vertex="1" parent="1">
          <mxGeometry x="1841" y="3310" width="120" height="60" as="geometry" />
        </mxCell>
        <mxCell id="GTG6F6J4O82Cw8e9boyh-331" value="" style="edgeStyle=orthogonalEdgeStyle;rounded=0;orthogonalLoop=1;jettySize=auto;html=1;" edge="1" parent="1" source="GTG6F6J4O82Cw8e9boyh-328" target="GTG6F6J4O82Cw8e9boyh-330">
          <mxGeometry relative="1" as="geometry" />
        </mxCell>
        <mxCell id="GTG6F6J4O82Cw8e9boyh-328" value="供暖" style="whiteSpace=wrap;html=1;fillColor=none;rounded=1;" vertex="1" parent="1">
          <mxGeometry x="1841" y="3450" width="120" height="60" as="geometry" />
        </mxCell>
        <mxCell id="GTG6F6J4O82Cw8e9boyh-333" value="" style="edgeStyle=orthogonalEdgeStyle;rounded=0;orthogonalLoop=1;jettySize=auto;html=1;" edge="1" parent="1" source="GTG6F6J4O82Cw8e9boyh-330" target="GTG6F6J4O82Cw8e9boyh-332">
          <mxGeometry relative="1" as="geometry" />
        </mxCell>
        <mxCell id="GTG6F6J4O82Cw8e9boyh-330" value="通煤气" style="whiteSpace=wrap;html=1;fillColor=none;rounded=1;" vertex="1" parent="1">
          <mxGeometry x="1641" y="3450" width="120" height="60" as="geometry" />
        </mxCell>
        <mxCell id="GTG6F6J4O82Cw8e9boyh-335" value="" style="edgeStyle=orthogonalEdgeStyle;rounded=0;orthogonalLoop=1;jettySize=auto;html=1;" edge="1" parent="1" source="GTG6F6J4O82Cw8e9boyh-332" target="GTG6F6J4O82Cw8e9boyh-334">
          <mxGeometry relative="1" as="geometry" />
        </mxCell>
        <mxCell id="GTG6F6J4O82Cw8e9boyh-332" value="移交物业" style="whiteSpace=wrap;html=1;fillColor=none;rounded=1;" vertex="1" parent="1">
          <mxGeometry x="1641" y="3590" width="120" height="60" as="geometry" />
        </mxCell>
        <mxCell id="GTG6F6J4O82Cw8e9boyh-337" value="" style="edgeStyle=orthogonalEdgeStyle;rounded=0;orthogonalLoop=1;jettySize=auto;html=1;" edge="1" parent="1" source="GTG6F6J4O82Cw8e9boyh-334" target="GTG6F6J4O82Cw8e9boyh-336">
          <mxGeometry relative="1" as="geometry" />
        </mxCell>
        <mxCell id="GTG6F6J4O82Cw8e9boyh-334" value="产品问题总结及反馈" style="whiteSpace=wrap;html=1;fillColor=none;rounded=1;" vertex="1" parent="1">
          <mxGeometry x="1841" y="3590" width="120" height="60" as="geometry" />
        </mxCell>
        <mxCell id="GTG6F6J4O82Cw8e9boyh-339" value="" style="edgeStyle=orthogonalEdgeStyle;rounded=0;orthogonalLoop=1;jettySize=auto;html=1;" edge="1" parent="1" source="GTG6F6J4O82Cw8e9boyh-336" target="GTG6F6J4O82Cw8e9boyh-338">
          <mxGeometry relative="1" as="geometry" />
        </mxCell>
        <mxCell id="GTG6F6J4O82Cw8e9boyh-336" value="初始登记" style="whiteSpace=wrap;html=1;fillColor=none;rounded=1;" vertex="1" parent="1">
          <mxGeometry x="1841" y="3730" width="120" height="60" as="geometry" />
        </mxCell>
        <mxCell id="GTG6F6J4O82Cw8e9boyh-341" value="" style="edgeStyle=orthogonalEdgeStyle;rounded=0;orthogonalLoop=1;jettySize=auto;html=1;" edge="1" parent="1" source="GTG6F6J4O82Cw8e9boyh-338" target="GTG6F6J4O82Cw8e9boyh-340">
          <mxGeometry relative="1" as="geometry" />
        </mxCell>
        <mxCell id="GTG6F6J4O82Cw8e9boyh-338" value="产权证办理" style="whiteSpace=wrap;html=1;fillColor=#FF9999;rounded=1;" vertex="1" parent="1">
          <mxGeometry x="1641" y="3730" width="120" height="60" as="geometry" />
        </mxCell>
        <mxCell id="GTG6F6J4O82Cw8e9boyh-343" value="" style="edgeStyle=orthogonalEdgeStyle;rounded=0;orthogonalLoop=1;jettySize=auto;html=1;" edge="1" parent="1" source="GTG6F6J4O82Cw8e9boyh-340" target="GTG6F6J4O82Cw8e9boyh-342">
          <mxGeometry relative="1" as="geometry" />
        </mxCell>
        <mxCell id="GTG6F6J4O82Cw8e9boyh-340" value="分户土地证" style="whiteSpace=wrap;html=1;fillColor=none;rounded=1;" vertex="1" parent="1">
          <mxGeometry x="1641" y="3870" width="120" height="60" as="geometry" />
        </mxCell>
        <mxCell id="GTG6F6J4O82Cw8e9boyh-342" value="土地证办理" style="whiteSpace=wrap;html=1;fillColor=#FF9999;rounded=1;" vertex="1" parent="1">
          <mxGeometry x="1841" y="3870" width="120" height="60" as="geometry" />
        </mxCell>
      </root>
    </mxGraphModel>
  </diagram>
</mxfile>
